<?xml version="1.0" encoding="utf-8"?>
<!-- Generator: Adobe Illustrator 27.5.0, SVG Export Plug-In . SVG Version: 6.00 Build 0)  -->
<svg version="1.1" id="Ebene_1" xmlns="http://www.w3.org/2000/svg" xmlns:xlink="http://www.w3.org/1999/xlink" x="0px" y="0px"
	 viewBox="0 0 512 128" style="enable-background:new 0 0 512 128;" xml:space="preserve">
<style type="text/css">
	.st0{fill:#FFFFFF;}
</style>
<script  id="__gaOptOutExtension" xmlns=""></script>
<g id="FRACTION">
	<path id="F" class="st0" d="M46.2,46.8H10.6v18.5H0V19.1l9.2-9.2H0V0.6h46.2v9.2H10.6v35.6l7.9-7.9h27.7L46.2,46.8L46.2,46.8z"/>
	<path id="R" class="st0" d="M121.3,65.3h-13.5L80.5,37.6h29V9.9H75.2v55.4H64.6V19l9.2-9.1h-9.2V0.6h46.2c2.5,0,4.6,0.9,6.5,2.8
		c1.8,1.8,2.8,4,2.8,6.5v25.1c0,7-3.1,10.6-9.2,10.6h-7.9v1.5L121.3,65.3z"/>
	<path id="A" class="st0" d="M195.9,65.3h-10.6V46.8H151v18.5h-10.6V9.9c0-2.5,0.9-4.7,2.7-6.5c1.8-1.8,4-2.7,6.5-2.7h46.2
		C195.9,0.6,195.9,65.3,195.9,65.3z M185.3,37.6V9.9H151v35.6l7.9-7.9L185.3,37.6L185.3,37.6z"/>
	<path id="C" class="st0" d="M274.3,56c0,2.6-0.9,4.7-2.7,6.5c-1.8,1.8-4,2.7-6.5,2.7h-36.9c-2.6,0-4.7-0.9-6.5-2.7
		c-1.8-1.8-2.7-4-2.7-6.5V9.9c0-2.5,0.9-4.7,2.7-6.5c1.8-1.8,4-2.7,6.5-2.7h36.9c2.5,0,4.7,0.9,6.5,2.7c1.8,1.8,2.7,4,2.7,6.5v9.2
		h-10.6V9.9h-34.3V56h34.3v-9.2h10.6V56z"/>
	<path id="T" class="st0" d="M331.7,9.9h-19.1v55.4H302V9.9h-19.1V0.6h48.8L331.7,9.9L331.7,9.9z"/>
	<path id="I" class="st0" d="M354.8,65.3h-10.6V0.6h10.6V65.3z"/>
	<path id="O" class="st0" d="M433.2,56c0,2.6-0.9,4.7-2.7,6.5c-1.8,1.8-4,2.7-6.5,2.7h-36.9c-2.6,0-4.7-0.9-6.5-2.7
		c-1.8-1.8-2.7-4-2.7-6.5V9.9c0-2.5,0.9-4.7,2.7-6.5c1.8-1.8,4-2.7,6.5-2.7H424c2.5,0,4.7,0.9,6.5,2.7c1.8,1.8,2.7,4,2.7,6.5V56z
		 M422.7,56V9.9h-34.3V56H422.7z"/>
	<path id="N" class="st0" d="M511.7,65.1h-18.5l-25.1-54.7h-5.3l4,6.6v48.1h-10.6V0.5h18.6l24.9,54.7h5.3l-4-6.6V0.5h10.6
		L511.7,65.1L511.7,65.1z"/>
</g>
<path class="st0" d="M0.3,75.8v46.1H512V75.8H0.3z M50.6,90.2v20.7h-3.9V90.2h-7.1v-3.4h18.2l0,3.4H50.6z M159.7,107.4
	c0,1-0.3,1.8-1,2.4c-0.7,0.7-1.5,1-2.4,1h-0.5V93.3H143v17.6h-0.5c-1,0-1.8-0.3-2.4-1c-0.7-0.7-1-1.5-1-2.4V90.2c0-1,0.3-1.8,1-2.4
	c0.7-0.7,1.5-1,2.4-1h13.8c1,0,1.8,0.3,2.4,1c0.7,0.7,1,1.5,1,2.4V107.4z M262.4,97.4c1,0,1.8,0.3,2.4,1c0.7,0.7,1,1.5,1,2.4v10
	h-3.9v-10.3h-12.8v10.3h-3.9V86.7h3.9v13.2l13.1-13.2h4.9l-10.9,10.2v0.5H262.4z M357.5,97.1h10.3v3.4h-13.3v6.9h13.3v3.4h-17.2
	V93.6l3.4-3.4h-3.4v-3.4h17.2v3.4h-13.3v9.9L357.5,97.1z M472.7,110.8L472.7,110.8h-6.9l-9.4-20.4h-2l1.5,2.5v18h-3.9V86.7h6.9
	l9.3,20.4h2l-1.5-2.5v-18h3.9V110.8z"/>
</svg>
