<?xml version="1.0" encoding="UTF-8"?>
<svg version="1.1" id="Ebene_1" xmlns="http://www.w3.org/2000/svg" xmlns:xlink="http://www.w3.org/1999/xlink" x="0px" y="0px" viewBox="0 0 230 300" style="enable-background:new 0 0 230 300;" xml:space="preserve"><script xmlns="" id="__gaOptOutExtension"/>

	 <style type="text/css">
	 	.st0{
	 		fill:#FFFFFF;
	 		transform-origin: 115px 120px;
	 	}

	 	#f1, #f2,	#f3, #f4, #f5, #f6, #f7, #f8, #f9, #f10, #f11, #f12,
	 	#j1, #j2,	#j3, #j4, #j5, #j6, #j7,
	 	#t1, #t2,	#t3, #t4, #t5	 {
	 		animation-name: fractureElement;
    	animation-iteration-count: infinite;
	 		animation-timing-function: ease-in-out;
	 	  animation-delay: 0s;
			transform: scale(1);
	 	}

	 	#f1 {	animation-duration: 6.1s; }
	 	#f2 {	animation-duration: 7.1s; }
	 	#f3 {	animation-duration: 5.1s; }
	 	#f4 {	animation-duration: 9.4s; }
	 	#f5 {	animation-duration: 6.3s; }
	 	#f6 {	animation-duration: 8.8s; }
	 	#f7 {	animation-duration:	7.7s; }
	 	#f8 {	animation-duration: 9.2s; }
	 	#f9 {	animation-duration: 6.9s; }
	 	#f10 { animation-duration: 8.9s; }
	 	#f11 { animation-duration: 9.9s; }
	 	#f12 { animation-duration: 12.9s; }

	 	#j1 {	animation-duration: 10.1s; }
	 	#j2 {	animation-duration: 9.1s; }
	 	#j3 {	animation-duration: 18.1s; }
	 	#j4 {	animation-duration: 17.4s; }
	 	#j5 {	animation-duration: 14.3s; }
	 	#j6 {	animation-duration: 11.8s; }
	 	#j7 {	animation-duration:	10.7s; }

	 	#t1 {	animation-duration: 11.1s; }
	 	#t2 {	animation-duration: 15.1s; }
	 	#t3 {	animation-duration: 14.1s; }
	 	#t4 {	animation-duration: 13.4s; }
	 	#t5 {	animation-duration: 12.3s; }


	 	@keyframes fractureElement {
	 		0% 		{ transform: scale(1); }
	 		20% 	{ transform: scale(1.1); }
	 		60% 	{ transform: scale(0.9); }
	 		100% 	{	transform: scale(1); }
	 	}

	 </style>

<g id="Symbol_1_">
	<g id="Fractured">
		<path id="t5" class="st0" d="M189.09924,167.92274c0.58163,0.10388,1.16328,0.20778,1.87631,0.33511    c-0.1869,0.33102-0.326,0.57742-0.51643,0.91473c-0.54002-0.38739-1.00742-0.72267-1.47482-1.05795    C189.02263,168.05067,189.06093,167.98671,189.09924,167.92274z"/>
		<path id="t4" class="st0" d="M147.7061,123.483c1.05626,0.14895,2.11424,0.2869,3.16818,0.45058    c0.76012,0.11803,0.75774,0.1333,0.69894,1.16007c-1.32347-0.46612-2.61188-0.91988-3.9003-1.37366    C147.68398,123.641,147.69505,123.56199,147.7061,123.483z"/>
		<path id="t3" class="st0" d="M147.46992,98.88813c-0.9558,0.3393-1.71584,0.60911-2.60062,0.92321    C145.85532,98.5795,146.48781,98.33195,147.46992,98.88813z"/>
		<path id="t2" class="st0" d="M144.68225,89.8709c0.16374,1.08871-1.11957,2.29469-2.62466,2.46901    C142.99651,91.45664,143.80554,90.6956,144.68225,89.8709z"/>
		<path id="t1" class="st0" d="M133.51625,75.50854c-0.33859,0.62684-0.54042,1.00043-0.74222,1.37402    c-0.0802-0.00713-0.16039-0.01427-0.2406-0.0214c0.02414-0.45087,0.03052-0.90467,0.10345-1.34751    C132.64323,75.47504,133.08745,75.50854,133.51625,75.50854z"/>
		<path id="m5" class="st0" d="M117.1238,80.55212c0-1.80833,0-3.61665,0-5.42498c0.10751,0.00278,0.21499,0.00556,0.32249,0.00833    c0,1.80886,0,3.61772,0,5.42658C117.33879,80.55875,117.23131,80.55544,117.1238,80.55212z"/>
		<path id="m4" class="st0" d="M136.69362,161.37091c-1.84834-0.71649-1.84834-0.71649-3.07967-4.01666    C134.8439,157.28296,135.46117,158.07671,136.69362,161.37091z"/>
		<path id="m3" class="st0" d="M184.9995,131.18756c-2.39436,1.12627-4.66333,2.50729-7.37024,0.66553    C180.06783,131.27643,182.31105,129.82034,184.9995,131.18756z"/>
		<path id="m2" class="st0" d="M172.76562,75.21751c0.48071,0.84053,0.91878,1.60647,1.40364,2.45423    c-1.09157,0.66957-2.12276,1.30209-3.25995,1.99964c-0.45996-0.72011-0.91628-1.43457-1.38493-2.16833    C170.26341,76.98193,171.47336,76.12873,172.76562,75.21751z"/>
		<path id="m1" class="st0" d="M147.31969,53.47852c0.71358,0.78877,1.3033,1.44062,1.98167,2.19048    c-1.17947,0.24499-2.21519,0.46012-3.4614,0.71896C146.36617,55.3533,146.79619,54.50783,147.31969,53.47852z"/>
		<path id="j7" class="st0" d="M129.09172,160.04219c-0.20082-0.81679-0.37819-1.53816-0.55449-2.25513    c0.51956-0.19492,1.00612-0.37744,1.60983-0.60393c0.85008,1.93581,1.69569,3.86145,2.57509,5.86401    c1.07503-0.57301,1.52316,0.01314,1.90756,0.91586c0.42033,0.98708,0.96922,1.91939,1.51108,2.97058    c-0.46222,0.2417-0.88937,0.46504-1.4006,0.73235c0.4847,1.15327,0.9617,2.28816,1.4877,3.5397    c-1.63972-0.43376-2.894-1.05209-3.04454-2.90735c-0.45193,0.15692-0.7731,0.26845-1.16246,0.40364    c0.12355,0.40933,0.23236,0.76988,0.42387,1.40443c-0.90404-0.42546-1.60197-0.75391-2.57663-1.2126    c0.67633-0.39185,1.05437-0.61089,1.49789-0.86784c-0.37416-1.33253-0.74974-2.67015-1.13809-4.05319    c-0.40607,0.08188-0.7467,0.15057-1.22249,0.24651c-0.31392-1.49133-0.61987-2.94485-0.95049-4.51556    C128.46553,159.83772,128.72429,159.92221,129.09172,160.04219z"/>
		<path id="j6" class="st0" d="M145.72755,171.46913c-1.04388-0.53836-2.08762-1.07698-3.13184-1.61465    c-0.1275-0.06564-0.25139-0.15556-0.38751-0.1846c-2.55226-0.54492-3.04593-2.72285-3.83771-4.78972    c0.9977-0.41399,1.95113-0.80963,3.01845-1.25252c1.53909,2.53027,3.05443,5.0215,4.56973,7.51273    C145.88164,171.24995,145.8046,171.35954,145.72755,171.46913z"/>
		<path id="j5" class="st0" d="M189.53882,171.38205c-3.26355-1.30322-6.60634-2.44333-9.75891-3.97498    c-1.70407-0.8279-3.0901-2.31596-4.60663-3.52255c-0.97978-0.77957-1.93604-1.58876-2.99384-2.45959    c0.95053-0.51117,1.7767-1.01503,2.6571-1.39243c0.26266-0.11259,0.75832,0.02585,1.01009,0.22372    c4.32018,3.39542,8.61906,6.81792,12.92166,10.23564c0.30191,0.23982,0.59653,0.48886,0.89452,0.73361    C189.62148,171.27766,189.58015,171.32985,189.53882,171.38205z"/>
		<path id="j4" class="st0" d="M151.25774,87.81338c-1.78621,1.26432-3.57195,2.5293-5.35936,3.79189    c-0.17288,0.1221-0.35617,0.22948-0.72025,0.20486c0.14285-0.21244,0.24594-0.47265,0.43484-0.6297    c1.43617-1.19405,2.8699-2.39309,4.3531-3.52687c0.29665-0.22673,0.80186-0.18056,1.21092-0.26022    C151.2039,87.53334,151.23083,87.67337,151.25774,87.81338z"/>
		<path id="j3" class="st0" d="M135.23033,88.83117c0.86514-1.6302,1.74173-3.25446,2.59064-4.89307    c0.42108-0.81283,0.93051-1.57018,0.75122-2.61652c-0.0742-0.43295,0.39282-0.95863,0.74333-1.72584    c0.11154,0.8311,0.18375,1.36909,0.28888,2.15236c0.36282-0.5834,0.5748-1.03161,0.88821-1.39149    c0.21767-0.24995,0.57484-0.37843,0.86966-0.5612c0.07132,0.10347,0.14267,0.20694,0.21399,0.31041    c-0.3183,0.49449-0.6366,0.989-0.97203,1.51013c1.16953,0.42703,1.10497-1.88293,2.46815-0.97227    c-0.19456,0.27731-0.37399,0.53304-0.67027,0.95531c0.83395-0.22147,1.51335-0.40192,2.19278-0.58234    c0.05829,0.12388,0.11658,0.24775,0.17487,0.37164c-3.12553,2.51047-6.25107,5.02094-9.3766,7.53142    C135.33888,88.8902,135.28461,88.86069,135.23033,88.83117z"/>
		<path id="j2" class="st0" d="M145.17586,68.01048c-1.22652,1.75277-2.45306,3.50555-3.74413,5.3505    c0.46971,0.03677,0.81427,0.06374,1.16019,0.09081c-0.52263,1.49377-5.04533,6.55292-5.88179,6.51346    c0.3362-0.55558,0.65811-1.08752,0.98004-1.61945c-0.10405-0.0887-0.20807-0.1774-0.31209-0.26609    c-0.60518,0.75832-1.21039,1.51664-1.8156,2.27495c-0.11781-0.08224-0.23563-0.16447-0.35344-0.24671    c0.35057-0.71234,0.70113-1.42467,1.0517-2.13702c-0.07326-0.01311-0.14653-0.02621-0.2198-0.0393    c0.02756-0.4696-0.03255-0.96642,0.10292-1.4025c0.21169-0.68153,0.58064-1.31247,0.83591-1.98278    c0.20796-0.54613,0.45847-0.92475,1.13873-0.92799c0.23253-0.00111,0.54015-0.30419,0.68088-0.54636    c0.45087-0.77586,0.89478-1.56461,1.24185-2.39025c0.95227-2.26543,2.96323-2.58249,4.96428-2.94434    C145.06229,67.82844,145.11908,67.91946,145.17586,68.01048z"/>
		<path id="j1" class="st0" d="M123.84328,66.47814c-0.15611,0.87068-0.2868,1.59954-0.43002,2.39822    c0.27789,0.06359,0.5351,0.12245,0.87415,0.20005c-0.18328,0.68764-0.39036,1.33094-0.51524,1.98981    c-0.06193,0.32676,0.02724,0.68214,0.04808,1.02458c0.22791-0.22493,0.45582-0.44985,0.68372-0.6748    c0.07887-0.00064,0.15772-0.0013,0.23661-0.00195c-0.25816,1.49441-0.32716,3.0556-0.82488,4.46542    c-0.55485,1.57171-1.49953,3.00578-2.43073,4.8009c-0.3525-0.48124-0.80128-0.81019-0.81361-1.15477    c-0.1209-3.37325-0.10004-6.75262-0.27254-10.12242c-0.06705-1.30923,0.3185-1.99443,1.58114-2.26917    C122.56287,67.00717,123.11527,66.7399,123.84328,66.47814z"/>
		<path id="f10" class="st0" d="M131.03812,202.83208c0.00009,0.00018,0.00018,0.00037,0.00037,0.00055    c-0.11044-0.21086-0.17848-0.4158-0.16997-0.57654c0.06612-1.24586,0.17445-2.48946,0.27133-3.81267    c0.39699,0.09402,0.97089,0.22992,1.75009,0.41447c-0.31932-1.14728-0.60255-2.16153-0.88379-3.1763    c-0.11511-0.41537-0.21455-0.83542-0.34093-1.24731c-0.25128-0.81953-0.28801-1.91676-0.84415-2.36713    c-0.48737-0.39456-1.56703-0.09705-2.38004-0.03708c-0.64863,0.0479-1.0109-0.10233-1.06393-0.82903    c-0.04139-0.56644-0.21722-1.12309-0.34762-1.75325c0.6881,0,1.32188,0,2.0414,0c-0.02831-0.95149-0.1609-1.63011-1.16447-2.05984    c-2.03883-0.87299-2.25275-2.15459-1.10898-4.032c0.71741-1.17749,1.86722-1.53702,2.92638-2.1154    c0.01155-0.02104,0.02272-0.04234,0.03426-0.06332l0.02847,0.02107c-0.00998-0.00743-0.02811-0.02098-0.02719-0.02078    c0.00824-0.00548,0.01556-0.01126,0.0238-0.01675c-0.28516-1.10014-0.03223-2.02483,0.5414-2.84319    c0.0022-0.00316,0.00467-0.00621,0.00687-0.00934c0.0457-0.06487,0.09314-0.12917,0.14278-0.19272    c0.01071-0.01381,0.02252-0.02722,0.03342-0.04099c0.04204-0.05267,0.08415-0.10524,0.12875-0.15709    c0.02693-0.03143,0.05577-0.06223,0.0836-0.09337c0.03023-0.03377,0.05962-0.06786,0.09085-0.1013    c0.06026-0.06442,0.12234-0.12823,0.18608-0.19144c0.00842,0.0099,0.01465,0.02045,0.0228,0.03043    c0.04698,0.05739,0.09204,0.1154,0.13123,0.17496c-0.01364-0.02072-0.03076-0.04048-0.04559-0.06085l1.4716-2.75638    c-0.02463,0.03239-0.04742,0.06245-0.07271,0.09575c-0.41832-3.13449-2.28471-4.61789-4.86869-5.3643    c-0.78278-0.22612-1.14808-0.72044-1.31767-1.50354c-0.21575-0.99635-0.54982-1.96707-0.83288-2.94885    c-0.06859,0.01393-0.13727,0.02785-0.20586,0.04179c0,0.47939,0,0.95877,0,1.66046    c-0.24341-0.55325-0.39341-0.89417-0.54314-1.23439c-0.4109,0.07787-0.7489,0.14192-1.1403,0.21609    c-0.2859-1.39046-0.55843-2.71582-0.84432-4.10637c0.3892,0.06119,0.66621,0.10474,1.0358,0.16284    c-0.21987-0.77502-0.40376-1.42363-0.58333-2.05696c-0.33462-0.0179-0.60834-0.03253-0.88206-0.04716    c0.00494-0.11838,0.0099-0.23677,0.01493-0.35515c0.72015,0.07635,1.43929,0.18866,2.16099,0.20943    c0.25009,0.00719,0.71676-0.20259,0.7229-0.33063c0.02298-0.47754-0.00459-1.00645-0.19479-1.43558    c-0.46557-1.05054-1.03205-2.05635-1.55843-3.07991c-0.39414-0.76646-0.98691-1.49449-1.14314-2.30658    c-0.3424-1.78024-1.62372-2.94345-2.4783-4.40483c-0.12134,0.36115-0.12454,0.67628-0.12088,0.99132    c0.09708,8.2951,0.20907,16.59006,0.28618,24.8853c0.03645,3.92484-0.13288,7.85719,0.0631,11.77254    c0.10375,2.0717-0.87794,3.45332-1.9696,4.92627c-0.26712,0.36037-0.51117,0.84404-0.5174,1.27463    c-0.04387,3.06027-0.02335,6.1214-0.02335,9.1823c0,1.54408,0,3.08813,0,4.69055c-0.87491,0.16707-1.6739,0.31958-2.47464,0.47249    c0,0.79654,0,1.50026,0,2.12733c1.52363,0,2.96915,0,4.44891,0c0-0.61348,0-1.06636,0-1.54657    c0.77904-0.1067,1.5066-0.20636,2.25852-0.30936c0.08251,0.944,0.15376,1.75851,0.23599,2.70009    c1.5304-0.1617,2.974-0.31421,4.46622-0.47186c-0.12564-1.05437-0.23499-1.9713-0.35358-2.96594    c0.98883-0.15887,1.91741-0.30807,2.91302-0.46806c-0.08334,0.72391-0.14873,1.29198-0.2142,1.86008    c0.05696,0.01143,0.11383,0.02283,0.1707,0.03427c0.51923-1.33702,1.03856-2.67406,1.55779-4.01108    c0.10056-0.03143,0.201-0.0629,0.30156-0.09433c0.01117,0.03297,0.02234,0.06606,0.03351,0.09901L131.03812,202.83208z     M125.49194,173.57573c-0.07994,0.01888-0.1598,0.03775-0.23974,0.05663c-0.16219-0.76913-0.32436-1.53827-0.48645-2.30739    c0.15293-0.03471,0.30586-0.0694,0.45889-0.1041c0.08452,0.38303,0.16904,0.76607,0.25357,1.14911    c0.08462,0.38301,0.16904,0.76607,0.25357,1.14911C125.65184,173.53795,125.57198,173.55684,125.49194,173.57573z     M129.87016,200.43643c-0.0511,0.01237-0.10211,0.02473-0.15312,0.03709c-0.05101,0.01234-0.1021,0.0247-0.15311,0.03706    c-0.28838-0.84381-0.57674-1.68764-0.9435-2.76074c0.15887,0.03651,0.30431,0.06996,0.44176,0.10158    c0.34367,0.07901,0.63754,0.14659,0.96629,0.22218c0.06584,0.01512,0.13297,0.03055,0.20212,0.04646    C130.09781,198.97354,129.98399,199.705,129.87016,200.43643z"/>
		<path id="f9" class="st0" d="M152.01416,199.90079c0.21858-1.15927-0.2816-2.09366-0.80394-3.0475    c-0.53554-0.97789-0.98196-2.00674-1.55339-2.9619c-0.25797-0.43138-0.66731-0.8421-1.10641-1.0822    c-1.27858-0.69919-2.60669-1.30748-4.13884-2.06137c0.60632-0.04344,0.94048-0.0674,1.36575-0.09789    c-0.99268-2.274-1.94414-4.45354-3.00247-6.87767c-0.45045,1.22977-0.79387,2.16701-1.23416,3.36914    c-0.72913-1.65657-1.50531-3.01816-1.924-4.48199c-0.43901-1.53432-1.35358-2.13425-2.8197-2.27823    c-0.41794-0.04102-1.04129-0.24016-1.17436-0.5416c-0.56822-1.28755-0.98817-2.64053-1.49625-4.06509    c0.54286,0.07809,0.92006,0.13237,1.52885,0.21999c-0.57079-1.09874-1.05092-2.02306-1.58232-3.04614    c-0.48792,0.64284-0.89433,1.17833-1.49599,1.97107l-1.4716,2.75647c0.01483,0.02037,0.03195,0.04013,0.04559,0.06085    c0.0208,0.03163,0.03645,0.06451,0.05504,0.09673c0.02245,0.03889,0.04716,0.07724,0.06639,0.1169    c0.01979,0.04074,0.03398,0.08269,0.05037,0.12415c0.01273,0.03226,0.02821,0.06392,0.03893,0.09654    c0.01566,0.04787,0.02573,0.09673,0.03708,0.14536c0.00633,0.02715,0.01558,0.05386,0.02052,0.08125    c0.0098,0.05327,0.01373,0.10735,0.01849,0.16133c0.00201,0.02342,0.00677,0.04649,0.00787,0.07005    c0.00275,0.05893-0.00027,0.11847-0.00339,0.17804c-0.00101,0.01901,0.00037,0.03778-0.00119,0.05685    c-0.00531,0.06259-0.01611,0.12555-0.02774,0.18857c-0.00302,0.01637-0.00394,0.03258-0.00742,0.04895    c-0.01347,0.06438-0.03252,0.12892-0.05257,0.19345c-0.00476,0.0152-0.00751,0.03033-0.01265,0.04553    c-0.02179,0.06514-0.04898,0.13025-0.07729,0.19536c-0.00641,0.01463-0.01099,0.02928-0.01767,0.04391    c-0.02959,0.06429-0.06438,0.12834-0.10019,0.19235c-0.00861,0.01537-0.01529,0.03081-0.02426,0.04616    c-0.03609,0.06149-0.07719,0.12259-0.11896,0.18358c-0.01218,0.01767-0.02225,0.03554-0.0349,0.05316    c-0.04083,0.05724-0.08681,0.11385-0.13278,0.17043c-0.01721,0.02106-0.03214,0.04239-0.04999,0.06337    c-0.04387,0.05167-0.09268,0.10251-0.14085,0.15347c-0.02399,0.02534-0.04568,0.05109-0.0706,0.07623    c-0.04543,0.04565-0.09532,0.09032-0.14413,0.13527c-0.03215,0.02962-0.06218,0.05971-0.0957,0.08899    c-0.04468,0.03889-0.09358,0.07664-0.14084,0.11487c-0.0424,0.03439-0.08305,0.06929-0.12756,0.1031    c-0.04149,0.03149-0.08662,0.06183-0.12994,0.0928c-0.05055,0.03613-0.09882,0.07292-0.15166,0.10829    c0.00357,0.0139,0.00586,0.02733,0.00963,0.04129v0.00003c-0.02171,0.01212-0.04369,0.02353-0.06549,0.03545    c-0.34175,0.61739-0.65604,1.25139-1.03342,1.84531c-0.64168,1.00978-0.5076,1.63521,0.52692,2.14847    c0.5153,0.25563,1.09149,0.42807,1.53801,0.77113c0.41081,0.31563,0.77309,0.76648,1.00027,1.23381    c0.46246,0.95135,0.79451,1.96567,1.24332,2.9245c0.07932,0.16928,0.46585,0.27551,0.70898,0.27278    c0.86072-0.00949,1.72069-0.0789,2.57207-0.12511c1.30367,3.35774,1.5076,4.24911-0.7316,4.97093    c-0.07481-0.30653-0.14862-0.60936-0.22243-0.9122c-0.0717-0.02214-0.14323-0.04428-0.21484-0.06642    c-0.37152,1.04779-0.61621,2.16451-1.14056,3.12932c-1.17006,2.1532-1.06538,4.0237,0.84698,5.67487    c0.07335,0.06335,0.10027,0.18056,0.20879,0.38667c-0.96512,0.1568-1.87079,0.33057-2.78435,0.44124    c-0.33388,0.04048-0.9196-0.55145-1.2075-1.10176l-0.13033,0.44855c0.42281,1.24771,0.84644,2.49745,1.299,3.83282    c7.00761-1.00061,13.76047-3.07489,20.07971-6.29015C152.17221,200.46114,151.9659,200.15695,152.01416,199.90079z     M140.82622,192.22569c-0.06831-0.18068-0.13507-0.3569-0.20201-0.53354c-0.13379-0.35333-0.26831-0.70848-0.41841-1.10484    c-0.07509-0.19817-0.15402-0.40663-0.23872-0.63033c0.58324,0.14639,1.10631,0.27773,1.62354,0.40759    c0.25861,0.06493,0.51584,0.12952,0.77838,0.19542c0.26254,0.06593,0.5305,0.13319,0.81053,0.20354    C142.33521,191.28819,141.64491,191.71706,140.82622,192.22569z"/>
		<path id="f8" class="st0" d="M166.18228,186.24992c-1.98436-2.46779-3.99863-4.91156-5.99681-7.36826    c-1.62398-1.9966-3.24309-3.99716-5.04979-6.22464c0.88188,0.25018,1.47301,0.41788,2.32076,0.65837    c-1.5556-1.92906-2.94147-3.64763-4.42249-5.48424c1.0116-0.11638,1.84015-0.21172,2.86493-0.32962    c-2.0168-2.15953-3.88892-4.16405-5.76956-6.17776c-0.34378,0.38474-0.59445,0.66521-0.88731,0.993    c-1.0164-1.24126-1.98964-2.39235-2.91656-3.57962c-0.39099-0.50085-0.74367-0.82133-1.43544-0.52853    c-0.21132,0.08945-0.64931-0.03503-0.81219-0.21585c-0.41637-0.46207-0.73624-1.01099-1.22032-1.70531    c0.67615,0.14101,1.10965,0.23141,1.73637,0.36212c-0.98749-1.2377-1.85422-2.32407-2.81053-3.52264    c0.74847-0.18211,1.3705-0.33347,1.99248-0.48479c0.05223-0.10776,0.10445-0.2155,0.15662-0.32324    c-0.46025-0.2811-0.92049-0.56221-1.39145-0.84984c0.36235-0.32587,0.5349-0.48102,0.74763-0.67236    c-0.25241-0.2094-0.48351-0.33835-0.62868-0.5318c-0.87566-1.16658-2.51904-1.43996-3.10631-3.10829    c-0.29402-0.83531-1.78221-1.25844-2.13786-2.43036c-0.01451-0.04782-0.12201-0.06715-0.18594-0.10028    c-1.30414-0.67531-2.60829-1.35068-4.19286-2.17126c0.20262,0.41396,0.26244,0.54103,0.32631,0.66599    c1.43692,2.80931,2.88043,5.61531,4.30179,8.43246c0.13879,0.27507,0.19243,0.61775,0.19855,0.93077    c0.02295,1.17245-0.03914,2.37163,1.5428,2.62801c0.08365,0.01357,0.17032,0.13409,0.21817,0.22462    c0.57629,1.09082,1.14552,2.18536,1.80701,3.45209c-0.64841-0.26959-1.05437-0.43834-1.65973-0.69003    c0.30074,0.65172,0.50182,1.08746,0.70116,1.51944c0.46452-0.10962,0.80655-0.19035,1.2382-0.29225    c0.60452,1.1685,1.18208,2.31886,1.79768,3.4485c0.13556,0.24876,0.3703,0.51082,0.62207,0.61453    c0.48183,0.19847,2.25772,2.69141,2.16899,3.18657c-0.02415,0.1346-0.09843,0.28761-0.19881,0.37691    c-1.0415,0.92624-0.68898,1.84749-0.06874,2.8336c0.44911,0.71411,0.64946,1.65044,1.76381,1.61047    c1.56458-0.05612,2.52785,0.7487,3.10199,2.13364c0.08176,0.19716,0.28226,0.35962,0.3186,0.55814    c0.08382,0.45796,0.20129,0.94682,0.11969,1.3889c-0.10818,0.58582-0.3932,1.13895-0.6667,1.88109    c-0.68919-1.13307-1.43724-2.08316-1.88345-3.15846c-0.7778-1.87457-2.31711-1.96596-4.0824-2.04391    c0.93431,1.82614,1.81978,3.55678,2.78146,5.43633c-1.54247-0.07582-2.62775-0.2934-3.20758-1.75439    c-0.65137-1.64136-1.30019-3.47923-3.97911-2.97212c0.50835-0.73552,0.89902-1.16594,1.11656-1.67094    c0.11299-0.26224,0.03265-0.84705-0.1544-0.9575c-0.77679-0.45869-1.62755-0.79221-2.73309-1.30159    c1.31976,3.08713,2.59932,5.81836,3.64853,8.63538c0.60315,1.61945,1.4761,2.53448,3.23997,2.70613    c1.21547,0.11829,1.5623,0.89705,1.14896,2.093c-0.43066,1.24594-0.87883,2.48586-1.35126,3.81841    c0.8017,0.16965,1.5334,0.32104,2.26352,0.47966c1.62518,0.35316,1.62486,0.35464,1.77077,1.01726    c-1.09615,0.08203-2.18945,0.16388-3.39696,0.25424c0.31967,0.86176,0.58432,1.57516,0.87016,2.34567    c0.86136-0.5244,1.56786-1.03632,2.34549-1.3929c0.37991-0.17421,0.95505-0.2077,1.33342-0.04803    c1.29112,0.54486,2.53328,1.20547,3.79559,1.81883c1.24069,0.60283,2.22501,2.28763,2.1519,3.6566    c-0.07559,1.41608-0.13266,2.83313-0.20097,4.31773c2.18686-0.46848,0.60837-2.1656,1.2363-3.10066    c0.16194,0.20157,0.31905,0.39711,0.60854,0.75737c0.08107-1.31865,0.1496-2.43372,0.23489-3.82144    c1.4299,0.86868,2.64464,1.60664,3.76547,2.28757c0.73102-0.47781,1.30199,0.69957,1.87865,0.5499    c0.90404-2.37991,2.64374-3.33672,5.03564-3.448C168.37004,189.80212,167.51433,187.90649,166.18228,186.24992z     M150.93523,177.85616c0.58147-0.45691,1.12463-0.88374,1.74725-1.37297c0.56174,0.92117,1.07742,1.76685,1.59311,2.61255    C153.14293,178.76797,151.77475,179.17537,150.93523,177.85616z"/>
		<path id="f7" class="st0" d="M182.9738,172.295c1.13455,0,2.10774,0,3.08087,0c-0.90144-0.89072-1.95465-1.4696-2.78696-2.27641    c-1.74333-1.68997-3.41953-1.86461-5.20866-0.14427c-0.12602,0.12115-0.2964,0.22327-0.46373,0.26707    c-0.18773,0.04918-0.46504,0.10925-0.58389,0.01459c-1.26717-1.00928-2.51059-2.04834-3.76056-3.07922    c0.03976-0.06137,0.07954-0.12274,0.11932-0.1841c0.45317,0.18451,0.90636,0.36902,1.64886,0.67133    c-4.56511-4.11589-9.56627-7.22911-13.37483-11.7085c-0.43034-0.50616-1.02873-0.86949-1.54922-1.29907    c1.4287,0.21176,2.7206,0.63309,4.0219,1.02327c0.19902,0.05971,0.44119-0.02435,0.98595-0.06744    c1.31332,1.06917,2.9238,2.39394,4.55315,3.69508c0.32588,0.26027,0.7249,0.6122,1.08803,0.60966    c1.30626-0.00914,2.61156-0.15193,4.20192-0.26434c-0.5592-0.41879-0.86035-0.65588-1.173-0.87656    c-2.26299-1.59726-4.50566-3.22482-6.80426-4.76924c-0.88388-0.59389-1.69576-1.21219-2.85184-1.53165    c-1.57507-0.43523-2.93144-1.66179-4.49791-2.62021c0.7825-0.26096,1.38037-0.46037,2.23877-0.74664    c-3.03456-1.57483-5.84219-3.03186-8.72774-4.52933c-0.04442,0.26979-0.05318,0.40762-0.09109,0.53693    c-0.10936,0.3728-0.17787,1.02467-0.35722,1.05809c-0.47517,0.08853-1.01149-0.04915-1.50092-0.18073    c-0.26111-0.07021-0.47586-0.3136-0.71091-0.47971c-1.3551-0.95757-1.35506-0.95766-2.89114,0.16255    c0.3508,0.38814,0.69836,0.77264,1.10406,1.2215c-0.71645,0.16327-1.3284,0.30272-2.05656,0.46867    c0.94354,1.18158,1.79889,2.25275,2.75815,3.45399c-0.64261-0.15303-1.09093-0.25981-1.5392-0.36658    c0.81847,0.92342,0.85788,2.87457,2.80046,2.08832c0.04462-0.01807,0.14584,0.03764,0.1871,0.08702    c0.85936,1.02924,1.71385,2.06255,2.56931,3.09505c-0.07242,0.12271-0.14481,0.24544-0.21718,0.36815    c-0.54201-0.06744-1.08395-0.13487-1.7081-0.21254c0.60667,0.8441,1.19041,1.65625,1.91019,2.65767    c0.1082-0.64897,0.17097-1.02545,0.25964-1.55717c0.51938,0.27669,1.08945,0.40105,1.34529,0.75345    c0.55667,0.76691,1.3013,1.0746,2.15173,1.29494c0.66064,0.17116,1.3636,0.29897,1.9411,0.63133    c0.42992,0.24742,0.73834,0.76175,1.00928,1.2123c0.23067,0.38356,0.2245,0.94005,0.50635,1.25719    c1.3799,1.55244,2.82114,3.05037,4.23964,4.56645c-0.49632,0.59682-0.84906,0.41444-1.263-0.03427    c-1.67487-1.81564-3.37654-3.60652-5.18988-5.53586c-0.16327,1.11377-0.70918,1.60059-2.09946,1.45238    c1.40927,0.96059,1.03036,1.8613,0.6111,2.76799c-0.07516,0.1626-0.12553,0.33693-0.18399,0.50697    c-0.34572,1.00517-0.13953,1.35429,0.93532,1.55423c0.81352,0.15134,1.64159,0.24223,2.4398,0.44989    c0.41667,0.10837,0.89296,0.32016,1.1555,0.63904c3.86537,4.69511,7.70686,9.41005,11.51903,14.14841    c0.19754,0.24554,0.22481,0.81136,0.08392,1.11218c-0.45624,0.97449-1.0482,1.88448-1.54111,2.84335    c-0.12624,0.24557-0.20488,0.64816-0.08893,0.86028c0.32146,0.58791,0.75702,1.11342,1.19289,1.72765    c0.5936-0.44926,1.06403-0.90907,1.62097-1.20717c1.57001-0.84023,2.34644-2.00018,1.80295-3.82359    c-0.08002-0.2686-0.09717-0.58348-0.0432-0.85716c0.05986-0.30348,0.18161-0.77866,0.37161-0.83057    c0.30585-0.08356,0.77228,0.02019,1.01894,0.22644c0.28088,0.23492,0.3951,0.66913,0.59639,1.04404    c1.19464-1.17809,1.91562-2.26134,3.43124-1.92258c-0.1601-0.55574-0.26407-0.91669-0.41377-1.43645    c1.15523,0.55962,1.79167,0.03117,2.38268-0.74588c0.5217-0.68593,1.09621-1.33965,1.70822-1.94627    c0.44621-0.44225,0.41388-0.80048,0.13087-1.31525C184.33022,175.02254,183.70792,173.73534,182.9738,172.295z     M181.29033,174.6922c-0.52397-0.7276-1.04788-1.4552-1.70816-2.37215c0.68338,0,1.13339,0,1.66205,0    c0.08989,0.79274,0.17477,1.54106,0.25964,2.2894C181.43269,174.63702,181.36148,174.66461,181.29033,174.6922z"/>
		<path id="f6" class="st0" d="M189.29807,137.4882c-0.62941-0.0618-1.25883-0.1236-2.05319-0.2016    c0.07684,1.01509,0.14827,1.95891,0.22714,3.00073c-5.18736-1.41869-9.94101-3.99831-15.21552-4.81985    c-0.03009,0.09961-0.06018,0.19922-0.09027,0.29884c1.63763,0.46989,3.27527,0.93979,5.20094,1.49234    c-0.91562,0.31746-1.56522,0.54268-2.49066,0.86356c2.41464,0.3266,2.09927,2.26907,2.90752,3.68687    c-1.02478-0.31367-1.83656-0.56213-2.64833-0.81062c-0.03975,0.13741-0.07951,0.2748-0.11926,0.4122    c2.07965,0.74341,4.15833,1.48964,6.23921,2.22964c3.92859,1.39705,7.8584,2.7907,11.78784,4.1853    c0.5016,0.17802,1.08237,0.25975,0.96378,1.0432c-0.02115,0.13982,0.18159,0.3745,0.33885,0.4698    c0.69403,0.42064,1.40924,0.80634,2.35751,1.34021c-0.78854-2.19679-1.48608-4.14009-2.27391-6.33481    c0.38623,0.30521,0.59911,0.44608,0.77968,0.62039c1.78691,1.72491,3.58211,3.4418,5.33589,5.19991    c0.2449,0.24548,0.47787,0.77046,0.38075,1.04913c-1.39514,4.00446-3.2597,7.78926-5.52385,11.54263    c-2.06303-1.2412-4.09221-2.46202-6.1214-3.68286c-0.0834,0.08856-0.16682,0.17714-0.25023,0.26569    c1.46526,2.03651,2.9305,4.07303,4.48245,6.23004c-3.06917,0.06551-4.63097-2.44986-7.02963-3.54628    c0,1.55058,0,3.08469,0,4.84076c-0.80159-0.63718-1.43185-1.13815-2.04942-1.62906    c0.23788-1.37375,1.73238-2.2361,1.33699-3.92378c-1.22588,0.73-2.37386,1.41362-3.63937,2.16724    c-0.22873-0.42014-0.4684-0.7659-0.61566-1.14737c-0.60847-1.57596-1.2074-3.15619-1.77196-4.74829    c-0.28801-0.81229-0.79663-1.17706-1.64311-0.98488c-1.08644,0.24667-2.29277-0.26617-3.30322,0.5303    c-0.0843,0.06642-0.40233-0.07744-0.55388-0.19696c-0.81625-0.64365-1.61426-1.31049-2.59932-2.1174    c0.62672-0.091,1.06128-0.15411,1.6767-0.24348c-2.45999-1.745-4.81233-3.41368-7.21184-5.11578    c0.49976-1.38843,0.98099-2.72549,1.4971-4.15938c3.05743,1.57874,6.01669,3.10677,9.26891,4.78609    c-0.31236-0.90413-0.53325-1.54346-0.84184-2.43666c2.97546,1.53833,5.72025,2.95738,8.52231,4.40608    c0.36374-0.87088,0.19693-1.2975-0.48669-1.63789c-1.96303-0.97749-3.88922-2.02904-5.85344-3.00403    c-0.6839-0.33948-1.22075-0.73457-1.3696-1.52238c-0.14114-0.74702-0.65228-1.08435-1.31821-1.39476    c-1.12988-0.52667-2.19-1.20224-3.28484-1.80545c-0.30737-0.16936-0.63362-0.30446-0.99567-0.47639    c-0.29353,0.65164-0.55363,1.22919-0.85292,1.89363c-1.74596-1.06113-3.42194-2.07973-5.27983-3.20891    c0.72946-0.25937,1.27432-0.45311,2.09604-0.74527c-2.84435-1.42561-5.47972-2.74649-8.23257-4.12625    c-0.02251,0.47049-0.0401,0.83865-0.05731,1.19913c-0.90024,0.43733-1.66623,0.31116-2.47742-0.3287    c-0.60355-0.47607-1.19109-1.37392-2.23239-0.70459c-0.10083,0.0648-0.43665-0.1673-0.62196-0.31396    c-1.07193-0.84845-2.15919-1.68138-3.18033-2.5882c-0.36453-0.32373-0.52339-0.86786-0.84024-1.25951    c-0.34531-0.42679-0.74957-0.81047-1.15773-1.18024c-0.28114-0.25468-0.59758-0.47939-0.92514-0.67172    c-0.52328-0.30731-1.06891-0.5766-1.54652-1.01897c0.71848,0.23746,1.43697,0.47493,2.24348,0.7415    c0.10335-0.22345,0.20808-0.44991,0.34225-0.73996c3.77438,1.06114,7.54457,2.10309,11.30127,3.19162    c0.80695,0.23381,1.49619,0.23892,2.25127-0.19379c0.3844-0.22026,0.95947-0.2809,1.40524-0.19351    c3.73849,0.73283,7.46696,1.51672,11.27893,2.3018c0.11096-0.24139,0.22047-0.47958,0.35599-0.77437    c4.73563,1.31256,9.46121,2.62233,14.1868,3.9321C189.30215,137.44341,189.30009,137.46581,189.29807,137.4882z"/>
		<path id="f12" class="st0" d="M206.6463,120.76093c0.62573,0.04215,1.30852-0.75659,1.96265-1.17335    c0.01126-0.00726-0.0087-0.06379-0.02316-0.15485c-0.35065-0.0767-0.72208-0.15795-1.16969-0.25587    c0.0674-1.04636,0.1337-2.07677,0.20183-3.13627l-0.68004,0.00522c0.00128,0.00532,0.00266,0.0106,0.00394,0.01591    c-0.35001,0.07161-0.69936,0.20137-1.05009,0.20512c-1.901,0.02042-3.80229,0.00969-5.89195,0.00969    c0.31612,0.61269,0.5795,1.12301,0.86969,1.68512c-1.63132,0.7228-3.15349,1.37682-4.97464,1.29852    c-3.01146-0.12951-6.03261-0.03521-9.13152-0.03521c-0.12491-0.956-0.23965-1.83421-0.37418-2.86367    c-1.73599,0.10261-3.44452,0.20126-5.15276,0.30627c-0.43086,0.02647-0.86319,0.12445-1.29021,0.10177    c-1.65019-0.08778-3.08591,0.1065-3.32675,2.17528c-0.01227,0.10503-0.23643,0.18626-0.6293,0.47193l-0.41162,0.70222    c0.1837,0.07669,0.36583,0.1527,0.54816,0.22878c-0.52362,1.80655-1.78012,3.37611-0.50604,5.28861    c-0.51428-0.02926-0.73627-0.04188-0.85587-0.0487c0.53078,1.20902,1.05412,2.40128,1.63646,3.72774    c-1.66063-0.17764-3.51018-1.40754-4.21201,1.25702c1.599,0.44781,3.19917,0.89598,4.89012,1.36958    c-0.10724-0.4989-0.18178-0.84572-0.21585-1.0041c0.7283-0.06865,1.44452,0.02263,2.02089-0.21925    c1.9989-0.83882,3.9577-0.85023,5.94452-0.03099c0.1651,0.0681,0.34386,0.10352,0.51703,0.15178    c2.56667,0.71527,2.55128,0.71704,2.87454,3.38861c0.0392,0.32394,0.28993,0.80664,0.54836,0.89066    c2.1458,0.69774,4.31888,1.31061,6.47649,1.97295c0.30118,0.09247,0.69652,0.24782,0.81657,0.48926    c0.31502,0.63387,0.50201,1.33133,0.76657,2.07822c-1.88855,0.34807-3.69002,0.68005-5.49139,1.01204    c-0.00247,0.08632-0.00487,0.17262-0.00734,0.25896c2.25047,0.74442,4.50102,1.48883,6.86183,2.26978    c0-0.52562,0-0.90639,0-1.42644c1.85339,0.24835,3.6185,0.48486,5.38609,0.72171c0.80476-1.65704,0.80403-1.65614-0.53307-2.83495    c-0.51419-0.45332-1.02399-0.91165-1.5358-1.36771c0.04642-0.10759,0.09285-0.21515,0.13928-0.32272    c1.30321,0.153,2.60632,0.30597,3.90953,0.45897c0.01346-0.06248,0.02692-0.12495,0.04037-0.18744    c-0.73296-0.31645-1.46593-0.63293-2.2924-0.98976c0.5305-0.31752,0.95047-0.56889,1.53398-0.91815    c-3.6315-0.96971-7.24232-1.31262-10.49727-2.94896c1.39616,0.37784,2.79231,0.75568,4.38582,1.18694    c-0.41393-1.18346-0.76027-2.17357-1.16576-3.33275c0.65292,0.25511,1.1304,0.39514,1.56337,0.62056    c0.89699,0.46701,1.73068,1.08105,2.6642,1.44556c0.99725,0.38936,2.07593,0.57626,3.12683,0.81746    c0.28828,0.06613,0.60458,0.01003,0.90807,0.01003c0.01437-0.08322,0.02867-0.16646,0.04295-0.24968    c-0.33893-0.18867-0.67784-0.37737-1.04488-0.58162c0.4359-0.39786,0.81593-0.74483,1.29854-1.18535    c-1.12289-0.33047-2.0762-0.61107-3.0295-0.89163c0.01163-0.07788,0.02335-0.15575,0.03508-0.23364c1.38452,0,2.76904,0,3.88141,0    c0.0793-0.70836,0.06557-1.33495,0.23434-1.90768c0.22684-0.76953,0.02829-1.29878-0.56859-1.78956    c-0.7729-0.63554-1.50247-1.32384-2.19141-1.93668c0.41164-0.74804,0.6861-1.2468,1.04213-1.89394    c-2.57234-0.19009-5.00394-0.36977-7.43555-0.54947c0.71356-0.43095,1.42088-0.68075,2.14461-0.86639    C202.34319,121.50534,204.35976,120.60694,206.6463,120.76093z M180.64644,126.38095    c0.65541-0.13306,1.31081-0.26614,1.96613-0.3992c0.00897-0.07276,0.01794-0.14549,0.02692-0.21825    c-1.00165-0.15339-2.00339-0.30678-3.24753-0.4973c3.09497-0.88885,4.84808-1.09698,5.77016,1.00696    C183.64453,127.22335,182.14699,126.67207,180.64644,126.38095z M190.42101,126.00281    c1.90916-0.27747,4.09012,0.31466,4.40221,1.24284C193.31551,126.81998,191.94572,126.43326,190.42101,126.00281z"/>
		<path id="f5" class="st0" d="M160.60931,114.48294c0.05531,0.76109,0.57336,0.70925,1.06255,0.77708    c1.54158,0.21378,3.08279,0.43066,4.88701,0.68311c-0.71089,0.40785-1.16182,0.66653-1.82912,1.04936    c3.40395,0.71257,6.57208,1.37578,9.88921,2.0702c-0.34505,0.12223-0.526,0.18638-0.84955,0.301    c0.65834,0.27477,1.24185,0.51834,1.80908,0.75507l0.41162-0.70222c-0.00247,0.00176-0.00412,0.0027-0.0065,0.00449    c0.57344-1.59174,1.00989-2.89682,1.51512-4.17475c0.38361-0.97025,0.94908-1.80285,1.13544-2.93005    c0.18599-1.12521,1.06117-2.26912,1.92033-3.11395c0.8999-0.88494,2.1044-1.48892,3.51758-1.33572    c0.48819,0.05295,0.99442-0.06097,1.54469-0.10262c0.06877,0.36683,0.14854,0.67745,0.18269,0.993    c0.20349,1.88197,0.20001,1.88254,2.12685,1.88261c3.77856,0.00016,7.55797,0.0424,11.33527-0.02818    c1.00835-0.01881,1.6044,0.29032,2.00743,1.17388c0.23524,0.51589,0.56474,0.98881,0.9957,1.72775    c-2.38829-0.48318-4.52428-0.91528-6.66019-1.34737c-0.03497,0.05822-0.06996,0.11646-0.10493,0.17468    c0.74304,0.48604,1.53479,0.91222,2.22005,1.46939c1.99297,1.62034,4.21365,2.33566,6.78427,1.99678    c0.7771-0.10246,1.57912-0.01587,2.36978-0.01587c0.02133,0.08505,0.04277,0.17015,0.06419,0.2552l0.68004-0.00522    c0.03545-0.54987,0.07115-1.10533,0.10806-1.67967c-0.174-0.11944-0.5565-0.3818-1.03471-0.70992c0.30925,0,0.50092,0,0.77087,0    c-0.09972-1.1992-0.19633-2.36031-0.29459-3.54236c0.30486-0.03697,0.52985-0.06424,0.94945-0.11511    c-2.06255-1.1218-3.96036-2.15398-6.12621-3.33194c2.299-0.17285,4.25999-0.32028,6.32071-0.47523    c-0.16914-1.57381-0.32372-3.01141-0.48114-4.47611c-0.52545,0.05339-0.87894,0.08931-1.27737,0.12981    c-0.25174-1.38123-0.50009-2.74375-0.75568-4.14634c-0.37656,0.02085-0.66475,0.00082-0.93681,0.0576    c-2.19553,0.45794-4.40872,0.85272-6.57281,1.43018c-1.13243,0.30215-1.8132-0.07116-2.54295-0.98533    c3.38177-1.22592,6.84424-1.64497,10.30212-2.084c-0.01457-0.12454-0.02913-0.24908-0.04369-0.3736    c-1.60953,0.14638-3.21906,0.29279-4.82849,0.43919c-0.01611-0.09109-0.03214-0.18217-0.04826-0.27326    c1.47491-0.66401,2.94983-1.32805,4.70331-2.11749c-3.84122,0.35341-7.10825,2.57011-10.99553,1.36827    c0.51822-0.25327,0.88562-0.44877,1.26547-0.61587c2.6664-1.17292,5.33847-2.33313,7.99928-3.51855    c0.30019-0.13373,0.54158-0.39927,0.81026-0.60374c-0.29074-0.17807-0.58141-0.35611-0.86932-0.53249    c0.05421-0.10519,0.13324-0.25893,0.26393-0.51292c-3.5359,0.36321-6.93445,0.71406-10.33336,1.06033    c-0.96649,0.09846-1.94322,0.13074-2.899,0.29018c-0.88086,0.14691-1.74002,0.42384-2.6087,0.64348    c0.00778,0.09787,0.01556,0.19574,0.02336,0.29361c1.73819-0.4017,2.40649,1.05344,3.66246,1.85477    c-2.67281,0.7644-5.11751,1.46358-7.60085,2.17384c-0.1293-0.98244-0.23929-1.81844-0.37152-2.82269    c-1.14532,0.703-2.15559,0.96946-3.13965,0.02175c-0.12518-0.12056-0.54781,0.00389-0.80486,0.09407    c-2.2045,0.77326-4.40248,1.56477-6.60249,2.35083c-0.19341,0.03001-0.38681,0.06003-0.58022,0.09003    c-0.96988,0.39622-1.93974,0.79245-2.90971,1.18867c1.23746,0.07047,2.437-0.03031,3.63535-0.14327    c2.14433-0.20213,4.31604-0.26767,6.42062-0.67672c1.10687-0.21511,1.78664,0.13302,2.75266,0.69561    c-0.74817,0.30511-1.29451,0.52784-1.87592,0.76495c0.18974,0.2585,0.33691,0.45898,0.49487,0.67422    c-0.62628,0.19707-1.17079,0.36841-1.7153,0.53973c0.73178,0.12731,1.4164-0.04073,2.08389,0.01112    c0.61337,0.04766,1.20833,0.33219,1.98846,0.56525c-1.68755,0.75497-3.04716,1.49082-4.49231,1.96722    c-1.05696,0.34842-1.59488,0.80385-1.41228,1.95271c0.1217,0.76582-0.22949,1.18045-1.02327,1.30957    c-0.61566,0.10014-1.20833,0.34146-1.81657,0.52161c0.31996,0.65284,0.59113,1.20597,0.91869,1.87429    c-1.13892,0.24453-2.14424,0.46035-3.19479,0.6859c-0.26154-0.60311-0.49799-1.14835-0.75769-1.74696    c-3.01602,0.8483-5.96155,1.67677-9.14827,2.57306c0.71089,0.329,1.15997,0.53688,1.80632,0.83606    c-1.14259,0.24872-2.07024,0.38979-2.95615,0.66511c-0.57967,0.18018-1.0988,0.55481-1.64514,0.84233    c0.03397,0.1133,0.06795,0.22661,0.10182,0.33988c-2.6826-0.44524-5.46741-0.07919-8.10403-0.888    c0.00696-0.09206,0.0141-0.18411,0.02124-0.27617c2.36978-0.17425,4.73956-0.34847,7.27821-0.53513    c-0.38873-0.30476-0.61061-0.47868-0.78278-0.61373c1.06575-0.75607,2.9315,0.44867,3.44185-1.62423    c1.29863-0.28535,2.65715-0.58385,4.07025-0.89435c-1.38242-1.26295-2.78416-0.69846-4.22372-0.31293    c-0.06007-0.74093-0.11127-1.37241-0.15541-1.91717c-0.59486-0.10225-1.12308-0.193-1.83113-0.3147    c0.84999-0.75906,2.36823-0.78239,1.69359-2.26486c-4.55257,2.55106-9.09105,5.09427-13.6068,7.62469    c0.99973-0.06683,2.11356-0.25476,2.93517,0.79584c-1.15807,0.08407-2.24615,0.16305-3.33435,0.24206    c1.02226,0.35217,2.04955,0.48729,3.07336,0.64524c0.27362,0.04224,0.56154,0.11002,0.79909,0.24384    c0.45457,0.25598,0.8499,0.62913,1.32069,0.84029c0.54314,0.24361,1.14111,0.3647,1.7153,0.53899    c-0.01146,0.06676-0.0229,0.13349-0.03426,0.20023c-1.30449,0.10223-2.60898,0.20442-3.91347,0.30662    c-0.02014,0.10939-0.0403,0.21877-0.06053,0.32816c0.66008,0.18507,1.31071,0.47733,1.98187,0.5359    c2.36594,0.20648,4.7402,0.31731,7.10789,0.50742C160.02562,114.0567,160.59631,114.30494,160.60931,114.48294z     M201.2756,108.44144c0.3163,0.06019,0.4903,0.08334,0.65906,0.12704c0.92867,0.24066,1.85596,0.48638,2.79442,0.73318    c-0.4097,0.61919-2.29451,0.92509-3.87555,0.61285C200.9886,109.44317,201.1212,108.98053,201.2756,108.44144z     M188.88812,101.02715c-2.03984,1.01134-2.49826-1.19746-3.88527-1.71216    C186.90387,98.00004,188.40543,98.72295,188.88812,101.02715z"/>
		<path id="f4" class="st0" d="M200.21227,76.82302c-3.11526,0.76276-6.08353,1.48955-9.15718,2.24212    c0.64693-1.82596,1.23077-3.37119,3.13042-4.05273c1.43016-0.5131,2.73395-1.37849,4.20467-2.14474    c-1.31206-2.14759-2.53745-4.17659-3.79774-6.18362c-0.13963-0.2223-0.53442-0.50044-0.71635-0.44462    c-1.08702,0.3336-2.21092,0.63994-3.19815,1.18186c-1.15944,0.63643-2.19261,1.50311-3.27963,2.27121    c-2.22554,1.57261-4.45044,3.1461-6.70969,4.74329c0.33212,0.60435,0.61581,1.12065,1.02695,1.86889    c-0.72252,0.07056-1.31358-0.03104-1.72151,0.19615c-1.63261,0.90931-3.21497,1.91036-4.79453,2.91125    c-0.1478,0.09367-0.14526,0.42465-0.2466,0.75721c-0.81958,0.49717-1.7664,1.07156-2.76534,1.67752    c-0.52924-0.62928-1.03227-1.22743-1.59004-1.89069c-0.36246,0.26295-0.67848,0.49225-1.00505,0.72922    c1.11819,0.97569,2.66055,1.10968,3.4227,2.49787c-1.97888,1.20182-3.89757,2.36707-5.82774,3.53933    c-0.45323-0.53788-0.81964-0.97271-1.24069-1.4724c-2.72444,1.91456-5.41708,3.80678-8.17355,5.74385    c-0.10855-0.49859-0.18736-0.8605-0.29129-1.33776c-1.68599,1.36968-3.2722,2.65832-4.91948,3.99656    c0.26437,0.17471,0.46942,0.3102,0.74525,0.49248c-1.70584,1.21535-3.31499,2.36179-4.92409,3.50823    c0.05582,0.10513,0.11162,0.21027,0.16748,0.31542c0.35675-0.1461,0.73909-0.24942,1.06604-0.44524    c2.03664-1.21976,4.04547-2.48698,6.10036-3.67464c0.4986-0.28819,1.13571-0.33677,1.70911-0.49552    c0.05713,0.13393,0.11426,0.26787,0.17139,0.4018c-0.59102,0.37581-1.18198,0.75163-2.04323,1.29929    c1.55217,0.19293,2.43442,0.80933,2.11165,2.38527c3.97256-1.10668,7.73846-2.15581,11.5329-3.21287    c0.26971,0.61081,0.49754,1.1269,0.73549,1.66581c1.06973-0.16176,2.09198-0.31633,3.11427-0.47092    c0.19339-0.03,0.38683-0.06001,0.5802-0.09001c-0.39758-0.66234-0.79521-1.32465-1.20851-2.01319    c0.48125-0.13448,0.92355-0.31989,1.38127-0.37362c1.08244-0.12706,1.58705-0.67471,1.44029-1.77143    c-0.11816-0.88292,0.34937-1.22462,1.13197-1.50751c0.82759-0.29913,0.96501,0.33892,1.35631,0.69908    c0.36731,0.33807,0.85545,0.93203,1.17459,0.86467c1.08455-0.22896,2.11787-0.70063,3.33334-1.13812    c-0.68718-0.42052-1.16862-0.71515-1.64723-1.00805c0.10814-0.52621,0.20589-1.00206,0.33449-1.62778    c-0.79964,0.33591-1.45326,0.6105-2.17078,0.91192c-0.25526-0.29269-0.50165-0.57524-0.91295-1.04691    c1.31734-0.07403,2.40762-0.13531,3.53185-0.19849c0.09505,0.38088,0.16849,0.67511,0.26738,1.0714    c1.25742-0.43912,2.43697-0.84992,3.61577-1.26296c2.12262-0.74377,2.12247-0.74433,3.4503,1.09098    c0.9321,1.28835,0.81462,1.14975,1.98984,0.15382c1.99095-1.6871,3.76225-3.75722,6.73595-3.90592    c1.69296-0.08468,3.36421-0.60263,5.21632-0.95833C201.80222,81.05591,201.0125,78.9535,200.21227,76.82302z M177.72102,86.50443    c-0.29039-0.30213-0.60493-0.62936-1.03416-1.07588c0.97684-0.43266,1.86493-0.82602,2.87758-1.27453    C179.29526,85.3297,179.07671,86.35928,177.72102,86.50443z M180.13641,82.2839c0.33354-0.85511,0.6021-1.54356,0.8707-2.23203    c0.12096,0.025,0.24191,0.05,0.36292,0.075c0.13873,0.36121,0.27747,0.72241,0.44537,1.15958    C181.3022,81.59132,180.81779,81.87912,180.13641,82.2839z"/>
		<path id="f3" class="st0" d="M189.56642,61.40134c-1.66539,0.62748-3.35953,1.17878-5.04213,1.7606    c-0.02162-0.05185-0.04332-0.10369-0.06502-0.15554c0.96675-0.69011,1.93333-1.38022,2.90009-2.07034    c-0.03424-0.06074-0.06841-0.12145-0.10265-0.18219c-0.94652,0.24599-1.89314,0.49199-3.05495,0.79393    c1.40878-1.7084,2.66217-3.22846,3.92848-4.76413c-0.2403-0.34121-0.41914-0.6544-0.65376-0.91791    c-0.97701-1.09753-1.80119-2.45078-2.99991-3.20234c-1.64552-1.03173-3.37161-1.9122-4.66795-3.3933    c-0.68983-0.78819-1.29048-0.53908-2.01732-0.06099c0.34305,0.2929,0.61649,0.52647,0.99249,0.84755    c-2.28938,0.37653-4.98636-0.56071-5.94122,2.47001c1.98105-0.15662,3.70752-1.86047,6.05624-1.06195    c-2.86044,3.0718-5.61795,6.03302-8.58481,9.21897c1.87939-0.39711,3.44286-0.72752,4.99817-1.05614    c0.2446,0.92617,0.36896,0.32127-1.90274,2.8115c-1.50587,1.65073-3.19946,0.89254-4.70697,1.02919    c0.14862-0.76262,0.33406-1.45916,0.40997-2.16745c0.09378-0.87335,0.08408-1.7579,0.1675-2.63219l-1.53352,0.57931    c0.0098,0.03814,0.01961,0.07626,0.0295,0.1144c-2.79561,3.00399-5.59113,6.008-8.50166,9.13557    c0.66556,0.12576,1.1315,0.15944,1.55916,0.30527c1.08562,0.37012,1.87912,0.034,2.58417-0.83163    c1.2836-1.57608,3.27097-1.39683,4.99734-1.92088c-1.01062,1.09528-2.09927,2.07725-3.13223,3.11463    c-0.35211,0.35359-0.5643,0.84652-0.81366,1.23416c-2.23819,0.38885-2.92546,2.8924-4.84845,3.82397    c-0.52197-1.35699-1.03232-2.68407-1.60403-4.17059c-0.04697,0.05771-0.09193,0.11197-0.13864,0.16923l-0.17134,0.45364    l-0.28177,0.09966c-0.94084,1.14602-1.83316,2.22031-2.68187,3.32127c-0.44176,0.57321-0.83829,0.778-1.52757,0.39691    c-0.25156-0.13913-0.8479-0.11896-0.97775,0.05687c-1.46831,1.98865-2.87656,4.02168-4.38031,6.15555    c0.52682,0.03423,0.89011,0.05785,1.40393,0.09123c-1.21538,1.49284-2.36227,2.86591-3.45778,4.27881    c-0.20834,0.26875-0.21338,0.6951-0.31227,1.04874c0.09862,0.04203,0.19716,0.08406,0.29568,0.12612    c-0.19075,0.24499-0.38159,0.48997-0.6207,0.79698c3.26357,0.04956,5.01521-2.46478,7.35103-4.07222    c0.09816,0.46133,0.17427,0.81889,0.27591,1.29668c1.70294-1.20708,3.29167-2.3783,4.93326-3.46999    c0.51218-0.34059,1.18361-0.69135,1.75394-0.65c2.05568,0.14902,3.74451-0.60792,5.35422-1.75499    c0.78883-0.5622,1.67601-0.98512,2.47574-1.53378c1.03517-0.71012,2.11859-1.17782,3.40669-1.13881    c0.32811,0.00996,0.69395-0.16518,0.99048-0.34235c2.09964-1.25471,4.18985-2.52544,6.27071-3.81108    c0.25174-0.15554,0.51044-0.39471,0.62729-0.65692c0.48151-1.07983,0.89964-2.1878,1.36575-3.27482    c0.09213-0.21479,0.25412-0.45447,0.4501-0.56129c1.75989-0.95959,3.51566-1.93014,5.31044-2.82123    c1.65916-0.8237,3.36475-1.55371,5.08344-2.34041C190.56972,61.31805,190.22476,61.15333,189.56642,61.40134z M166.76271,74.36174    c1.21045-0.49893,1.86458-1.94204,3.49214-1.60767C168.58965,74.3779,167.55228,74.89256,166.76271,74.36174z"/>
		<path id="f11" class="st0" d="M145.27394,61.34958c0.72235,0.31129,1.10358,0.70451,0.68874,1.51836    c0.69313,0.13127,1.28828,0.24398,1.93755,0.36694c-0.72362,1.25318,0.79478,1.61037,0.90413,2.52782    c-0.98334,1.41109-1.97061,2.82759-2.9577,4.2441c0.06383,0.09048,0.12766,0.18098,0.19148,0.27148    c0.73929-0.17736,1.80614-0.10877,2.1577-0.57713c1.16182-1.54781,2.93004-1.64352,4.36632-2.34073    c1.01437,1.21165,0.41766,2.14224-0.29826,3.11308c1.17253-0.41467,2.34515-0.82938,3.65971-1.29428    c-0.22043-0.44002-0.40633-0.81126-0.51219-1.02264c1.15202-1.38612,2.1936-2.71195,3.31311-3.96829    c1.43681-1.61244,2.92967-3.17533,4.4175-4.74141c0.17921-0.18867,0.47427-0.3679,0.72089-0.37514    c1.27692-0.03734,2.55559-0.01735,3.83371-0.01735c0.01657,0.06451,0.03323,0.12905,0.0498,0.19357l1.53352-0.57931    c0.00531-0.05604,0.00769-0.11241,0.01392-0.16836c0.03957-0.35817,0.17857-0.84357,0.44038-1.01616    c1.55394-1.02461,1.85092-2.40156,1.37529-4.09813c-0.14342-0.51122-0.12923-1.07035-0.15468-1.60912    c-0.01117-0.23599-0.02847-0.56307,0.10715-0.6997c0.81978-0.82571,1.43059-1.86562,2.71062-2.19543    c1.43646-0.37006,2.82391-0.93022,4.23262-1.40767c-0.03636-0.13299-0.07281-0.266-0.10916-0.39897    c-1.50009-0.20719-2.67116,1.02551-4.08115,1.21214c0.04231-0.09315,0.08461-0.18633,0.12692-0.27949    c-0.64505-0.23626-1.29012-0.47251-2.12079-0.77676c0.41704-1.33979,0.84012-2.69932,1.33646-4.29408    c-0.112-0.02793-0.47684-0.12784-0.84598-0.20786c-0.23645-0.05126-0.57829,0.01584-0.70311-0.12284    c-0.75285-0.83663-1.45679-1.71736-2.32245-2.7582c-0.00934-0.00105-0.32985-0.03757-0.48041-0.05472    c-0.21812,0.58668-0.31044,1.12391-0.58846,1.53592c-1.86942,2.77111-3.76649,5.52382-5.67767,8.26643    c-1.78177,2.5568-3.59213,5.09369-5.42647,7.69125c-1.55486-1.24286-3.02904-2.42118-4.56467-3.64859    c-0.4435,0.80632-0.83113,1.51117-1.32939,2.41702c-0.40321-0.5092-0.72501-0.91557-1.09222-1.37931    c-0.53159,0.95639-0.92628,1.85108-1.49258,2.61926c-0.36823,0.49943-2.24615,0.50865-2.66942,0.13303    c-0.43535,0.98856-0.86621,1.96722-1.31575,2.98803c-0.65054-0.37825-1.24817-0.72562-1.8457-1.07299    c-0.07188,0.08319-0.14386,0.16641-0.21574,0.24961c0.16702,0.19444,0.29881,0.44778,0.50742,0.5726    C143.80434,60.58994,144.51735,61.02362,145.27394,61.34958z"/>
		<path id="f2" class="st0" d="M164.79436,39.41869c-0.05518-0.93678-0.10265-1.74311-0.15282-2.59446    c-0.24054,0.11141-0.39119,0.1812-0.56485,0.26164c-0.01123-0.24825-0.02167-0.47995-0.03212-0.71165    c-0.09084-0.06921-0.18167-0.13843-0.27255-0.20765c-0.07617,0.28189-0.1523,0.56376-0.22847,0.84563    c-0.23294-0.30918-0.24677-0.41282-0.2572-0.51679c-0.03667-0.36403-0.07222-0.72818-0.10814-1.09227    c-0.34245,0.14761-0.71863,0.24575-1.02115,0.45198c-0.96613,0.65865-1.90482,1.35744-2.93924,2.10195    c-0.37985-0.99244-0.71376-1.86486-1.11594-2.91555c-0.50229,0.93025-0.88747,1.64368-1.34761,2.49583    c-0.3999-1.1052-0.64772-2.05681-1.07768-2.91738c-0.68307-1.3671-0.7662-2.64256,0.17586-3.9084    c0.0249-0.03346-0.03313-0.12862-0.09927-0.35541c-2.56039-1.10907-5.217-2.2598-8.14854-3.52961    c-0.09605,1.02396-0.16759,1.78644-0.2534,2.7014c-1.3685,0.47878-2.95033,1.05334-4.54771,1.58054    c-0.63338,0.20904-0.98506,0.52938-1.1651,1.22186c-0.71439,2.74797-1.50797,5.47541-2.27632,8.2093    c-0.54724,1.94718-1.10106,3.89252-1.65193,5.83868c-0.11374-0.01064-0.2274-0.02127-0.34114-0.0319    c0-3.08603,0-6.17205,0-9.25806c-0.09389-0.00456-0.18784-0.00913-0.28178-0.01368    c-0.10477,0.3335-0.21866,0.66443-0.31287,1.00087c-1.08586,3.87678-2.14735,7.76066-3.28371,11.62254    c-0.12053,0.40948-0.62846,0.78893-1.04868,0.99011c-0.20383,0.09756-0.63216-0.22993-0.937-0.40335    c-0.19028-0.10828-0.33987-0.28818-0.53685-0.46157c-0.93953,2.907-0.93953,2.907,1.20598,4.45927    c-0.04305,0.32444-0.08755,0.66004-0.14427,1.08759c0.78419-0.14215,1.47427-0.26723,2.39465-0.43407    c-0.23232,0.95378-0.24112,1.87323-0.68497,2.46809c-0.25108,0.33655-1.21678,0.13993-1.94806,0.18938    c-0.58701,2.7812-1.18224,5.60133-1.77748,8.42146c-0.09706-0.00925-0.19406-0.01852-0.29108-0.02779    c0-1.86156,0-3.72311,0-5.58468c-0.09605-0.00485-0.19211-0.00971-0.28816-0.01457    c-0.43962,3.17836-0.87924,6.35672-1.33047,9.6192c0.42902-0.0719,0.74251-0.12444,1.11514-0.18688    c-0.15694,0.82146-0.29018,1.51922-0.4334,2.26885c0.31038,0.06992,0.5697,0.12833,0.87016,0.19602    c-0.25014,0.98291-0.48441,1.90359-0.71893,2.82513c0.53035,0.23967,0.94148,0.42548,1.39862,0.63206    c0.44885-1.02761,0.86395-2.02058,1.32013-2.99428c0.12592-0.26871,0.38651-0.69257,0.56474-0.68246    c1.01767,0.05774,1.22339-0.7159,1.56316-1.37232c0.46277-0.89409,0.8997-1.80298,1.40079-2.675    c0.1815-0.31587,0.46906-0.66893,0.78925-0.78917c1.10454-0.41475,2.24789-0.72521,3.36931-1.09686    c0.2561-0.08487,0.56496-0.19628,0.7114-0.39649c0.99487-1.36058,1.95276-2.7482,2.89847-4.09273    c-0.29265-0.92646-1.74013-1.3645-0.83942-2.59579c-0.38945-0.21222-0.68654-0.44061-1.02208-0.54388    c-0.82819-0.25485-0.92567-0.91784-0.74199-1.5426c0.08862-0.30134,0.62762-0.61011,0.99825-0.6621    c1.05675-0.14825,1.69217-0.64094,2.14082-1.63965c0.71439-1.59021,1.6006-3.10321,2.45288-4.72243    c1.5632,1.24974,3.03673,2.42774,4.56485,3.64942c1.70943-2.42469,3.34785-4.74866,5.17375-7.33854    c-1.82617,0.5859-3.32928,1.06815-5.07463,1.62812c1.52991-2.51377,2.90822-4.77848,4.12117-6.77145    c1.79483-0.25414,3.34921-0.47422,5.10027-0.72216c-2.07266,3.42012-4.05687,6.69425-6.05589,9.99284    c4.17038-0.2882,6.68794-2.59305,8.14844-6.26758c0.09326,0.01887,0.18652,0.03774,0.27985,0.05661    c0.0865,0.32587,0.17307,0.65173,0.33977,1.27955c1.47484-2.0196,2.8597-3.86736,4.17628-5.7625    c0.24556-0.3534,0.21744-0.89691,0.37653-1.63546C166.18007,38.59046,165.54944,38.96739,164.79436,39.41869z M139.71429,49.65743    c-0.61163,1.52633-1.11725,3.09516-1.70288,4.74378c0.47934,0.08754,0.88025,0.16074,1.36734,0.24969    c-0.29857,0.68439-0.58025,1.32998-0.90324,2.07041c-0.63911-0.34657-1.19125-0.64599-1.86826-1.0131    c1.42516-2.23977,0.96928-4.68274,0.9274-7.06118c-0.0202-1.14543,0.88737-1.23384,1.48724-1.72224    C140.13573,47.71395,140.13925,48.59705,139.71429,49.65743z"/>
		<path id="f1" class="st0" d="M139.51094,26.75581c0.32553-0.48968,0.43298-0.65131,0.57219-0.86073    c-0.58153-0.36382-2.05452,0.83398-1.65541-0.99864c-1.4548-0.352-2.83253-0.68536-4.26907-1.03293    c-0.27177,1.28347-0.58965,2.39581-0.72269,3.52981c-0.11662,0.99436-0.71123,1.27608-1.8241,1.54516    c0.16209-1.57715,0.16742-3.0176,0.49738-4.37946c0.24382-1.00656-1.06287-1.10298-0.8391-1.94857    c-0.03001,0.0115-0.06003,0.023-0.13594,0.05206c-0.08487,0.22965-0.18088,0.48955-0.28427,0.76934    c-1.00816-0.15704-1.99222-0.31033-3.10139-0.48309c-0.32832,2.52405-0.64467,4.95653-0.96101,7.38831    c-0.84939-0.75741-1.3071-1.62926-0.95373-2.8238c0.16147-0.54586,0.17635-1.13579,0.25025-1.70668    c0.1919-1.48278,0.3798-2.96612,0.57961-4.5303c-1.56599-0.14894-2.98154-0.28361-4.48193-0.4263    c-0.23785,3.38667-0.46642,6.64142-0.69366,9.87746c-1.21648,0.14585-2.09956-0.72131-2.01801-1.87908    c0.1545-2.19253,0.30817-4.38509,0.4622-6.57763c-0.07954-0.01364-0.15915-0.0273-0.23875-0.04091    c-0.58505,1.55358-1.1701,3.10715-1.75516,4.66075c-0.05392-0.01097-0.10783-0.02194-0.16179-0.03289    c-0.11484-1.79638-0.22973-3.59279-0.34457-5.38918c-0.53288,2.82686-0.83292,5.64805-1.18134,8.46325    c-0.12713,1.02763-0.43365,2.03426-0.54174,3.06272c-0.12054,1.14663,0.08324,2.35554-0.19333,3.45177    c-0.60368,2.39267-0.07032,4.3363,1.69761,6.02977c0.31624,0.30288,0.51431,0.878,0.52212,1.3316    c0.11938,6.96644,0.19998,13.93354,0.28459,20.90054c0.01313,1.07994-0.00264,2.16022,0.00443,3.24026    c0.00227,0.34528,0.03534,0.69033,0.05486,1.04488c2.13058-0.378,2.20064-0.45555,2.44118-2.43441    c0.05939-0.48846,0.16005-0.97189,0.2435-1.46819c0.48256-0.04671,0.86373-0.08361,1.28911-0.12479    c0.64408-3.0518,1.28558-6.09148,1.92196-9.10696c1.94907,0.17293,1.95002,0.17319,2.44898-1.6022    c0.11531-0.41012,0.22166-0.82276,0.33565-1.24745c-0.14433-0.11465-0.2522-0.2053-0.36508-0.28915    c-0.49348-0.36646-0.98843-0.73095-1.48286-1.09615c0.59097-0.32782,1.14896-0.76525,1.78127-0.95558    c0.78202-0.23537,1.15765-0.64537,1.36713-1.4329c0.90576-3.40566,1.87399-6.79475,2.82466-10.18844    c0.34457-1.23002,0.70348-2.45599,1.05544-3.68234c1.24406,0.26123,2.34949,0.49337,3.47852,0.73046    c0.19063-0.67098,0.42532-1.18097,0.46989-1.70708c0.24138-2.84655,1.77826-4.41916,4.57477-4.8626    c0.84116-0.13338,1.58768-0.48851,1.70784-1.5644c0.64139,0.30409,1.20387,0.57076,1.82764,0.86652    c0.20784-0.57405,0.37315-1.03062,0.56532-1.56133C142.89793,26.85039,141.48396,25.79636,139.51094,26.75581z     M120.64945,43.07235c-0.08968,0.02461-0.17941,0.04922-0.26913,0.07381c-0.58141-1.21457-2.14192-1.88549-1.91462-3.67973    c0.82528-0.08805,1.55539-0.16595,2.43179-0.25945C120.81029,40.5662,120.7299,41.81928,120.64945,43.07235z M127.24862,31.02572    c-0.19228-0.06475-0.28786-0.41612-0.42454-0.64651c-0.01482,0.00654-0.02975,0.01311-0.04457,0.01965    c0,0,0.03434-0.03757,0.03455-0.03751c0.00348,0.00558,0.00659,0.01212,0.01002,0.01786    c0.85815-0.37854,1.71655-0.7572,2.59674-1.14548C129.36633,30.19019,128.03607,31.29099,127.24862,31.02572z"/>
	</g>
	<path id="Full" class="st0" d="M114.10684,22.83398c0,61.73062,0,123.39493,0,185.31927c-34.11147-1.36038-60.95337-15.65085-79.01733-44.70346   c-18.41171-29.61189-18.16878-66.62761,0.03609-96.36661C54.13206,36.03476,86.47871,22.52427,114.10684,22.83398z"/>
</g>
<g id="FRACTION">
	<path id="F" class="st0" d="M38.34161,249.23822H25.3251v6.74947h-3.85678v-16.87366l3.37473-3.37436h-3.37473v-3.37474h16.87329v3.37474   H25.3251v13.01649l2.89268-2.89267h10.12383V249.23822z"/>
	<path id="R" class="st0" d="M65.82078,255.98769h-4.91723l-10.02749-10.12419h10.60588v-10.12383H48.94748v20.24802H45.0907v-16.92165   l3.37473-3.32637H45.0907v-3.37474h16.87329c0.89964,0,1.68755,0.33737,2.36227,1.01245   c0.67509,0.67473,1.01246,1.46265,1.01246,2.36229v9.15971c0,2.57181-1.12527,3.85678-3.37473,3.85678h-2.89231v0.53041   L65.82078,255.98769z"/>
	<path id="A" class="st0" d="M93.05929,255.98769H89.2025v-6.74947H76.66805v6.74947h-3.85678v-20.24802   c0-0.93187,0.32931-1.72748,0.98828-2.38646c0.65824-0.65862,1.45385-0.98828,2.38645-0.98828h16.87329V255.98769z    M89.2025,245.86349v-10.12383H76.66805v13.01649l2.89268-2.89267H89.2025z"/>
	<path id="C" class="st0" d="M121.74359,252.61296c0,0.9326-0.33004,1.72783-0.98828,2.38644c-0.65898,0.65898-1.45458,0.98828-2.38645,0.98828   H104.8703c-0.9326,0-1.72821-0.3293-2.38645-0.98828c-0.65898-0.65862-0.98828-1.45384-0.98828-2.38644v-16.87329   c0-0.93187,0.3293-1.72748,0.98828-2.38646c0.65824-0.65862,1.45385-0.98828,2.38645-0.98828h13.49856   c0.93187,0,1.72747,0.32967,2.38645,0.98828c0.65824,0.65898,0.98828,1.45459,0.98828,2.38646v3.37436h-3.85679v-3.37436h-12.53445   v16.87329h12.53445v-3.37474h3.85679V252.61296z"/>
	<path id="T" class="st0" d="M142.71432,235.73967h-6.99049v20.24802h-3.85678v-20.24802h-6.99049v-3.37474h17.83776V235.73967z"/>
	<path id="I" class="st0" d="M151.15024,255.98769h-3.85678v-23.62276h3.85678V255.98769z"/>
	<path id="O" class="st0" d="M179.83453,252.61296c0,0.9326-0.33003,1.72783-0.98828,2.38644c-0.65897,0.65898-1.45457,0.98828-2.38644,0.98828   h-13.49857c-0.9326,0-1.72821-0.3293-2.38644-0.98828c-0.65898-0.65862-0.98828-1.45384-0.98828-2.38644v-16.87329   c0-0.93187,0.3293-1.72748,0.98828-2.38646c0.65823-0.65862,1.45384-0.98828,2.38644-0.98828h13.49857   c0.93187,0,1.72748,0.32967,2.38644,0.98828c0.65825,0.65898,0.98828,1.45459,0.98828,2.38646V252.61296z M175.97775,252.61296   v-16.87329H163.4433v16.87329H175.97775z"/>
	<path id="N" class="st0" d="M208.51921,255.93933h-6.7491l-9.1601-20.00699h-1.92821l1.44615,2.41063v17.59636h-3.85678v-23.62276h6.79745   l9.11174,20.007h1.92857l-1.44653-2.41026v-17.59674h3.8568V255.93933z"/>
</g>
<g id="TOKEN_1_">
	<rect id="O_Inner" x="73.73515" y="266.22357" width="4.68133" height="6.30184"/>
	<path id="TOKEN" class="st0" d="M21.57736,259.8244v16.85437h187.04649V259.8244H21.57736z M42.58784,265.0983h-2.61063v7.56192h-1.4403   v-7.56192h-2.61063v-1.26007h6.66155V265.0983z M79.85677,271.40015c0,0.34799-0.12344,0.64505-0.36922,0.8912   c-0.24615,0.24615-0.54323,0.36887-0.89121,0.36887h-5.04104c-0.34835,0-0.64542-0.12271-0.8912-0.36887   c-0.24615-0.24615-0.36923-0.54321-0.36923-0.8912v-6.30185c0-0.34799,0.12308-0.64505,0.36923-0.8912   c0.24578-0.24579,0.54285-0.36887,0.8912-0.36887h5.04104c0.34798,0,0.64506,0.12308,0.89121,0.36887   c0.24578,0.24615,0.36922,0.54321,0.36922,0.8912V271.40015z M117.39603,267.74518c0.34798,0,0.64505,0.12308,0.8912,0.36887   c0.24579,0.24615,0.36923,0.54324,0.36923,0.89124v3.65494h-1.44066v-3.78094h-4.68096v3.78094h-1.4403v-8.82199h1.4403v4.80698   l4.78902-4.80698h1.78242l-3.99671,3.72675v0.18021H117.39603z M155.9254,265.0983h-4.86118v3.6011l1.08022-1.08023h3.78096v1.2601   h-4.86118v2.52087h4.86118v1.26007h-6.30147v-6.30148l1.26007-1.26044h-1.26007v-1.26007h6.30147V265.0983z M194.27493,272.64227   h-2.52089l-3.42088-7.4718h-0.72015l0.5403,0.90036v6.57144h-1.44029v-8.82199h2.53847l3.40292,7.4718h0.72015l-0.5403-0.90036   v-6.57144h1.44067V272.64227z"/>
</g>
</svg>
