<?xml version="1.0" encoding="utf-8"?>
<!-- Generator: Adobe Illustrator 27.5.0, SVG Export Plug-In . SVG Version: 6.00 Build 0)  -->
<svg version="1.1" id="Ebene_1" xmlns="http://www.w3.org/2000/svg" xmlns:xlink="http://www.w3.org/1999/xlink" x="0px" y="0px"
	 viewBox="0 0 512 512" style="enable-background:new 0 0 512 512;" xml:space="preserve">
<g>
	<path d="M60.81593,256.49399C60.77975,151.86328,145.44112,61.36662,256.84201,61.67647
		c112.60666,0.31321,194.1131,95.26462,193.29959,196.56062c-0.8103,100.8927-83.07953,193.39502-195.33217,193.07568
		C148.15471,451.00937,60.56105,363.02615,60.81593,256.49399z M274.48941,299.75345
		c-0.30685-0.49896-0.94913-1.0636-0.86636-1.48627c0.55151-2.81717,1.47067-5.57578,1.84726-8.40964
		c0.30527-2.29688-0.95602-3.33139-3.41132-2.80862c-2.08273,0.44339-4.22214,0.86115-6.33652,0.86136
		c-3.62823,0.00037-5.54324-2.45206-4.46033-5.88992c0.87875-2.78958,2.16223-5.49506,3.58557-8.06061
		c3.01373-5.43231,6.27625-10.72598,9.35892-16.12091c2.10544-3.68471,1.99918-4.63995-1.06131-7.64922
		c-3.0752-3.02374-3.88889-6.35091-1.88229-10.23349c1.21527-2.35133,2.68491-4.59064,3.69443-7.02376
		c1.19376-2.87697,2.93231-5.93745,2.84006-8.86823c-0.42105-13.37924,2.29773-26.09978,6.60266-38.64198
		c9.32587-27.17046,5.66074-53.07809-8.38889-77.67432c-3.75961-6.58189-8.6676-12.50784-13.0629-18.75561
		c5.81683,1.47046,11.56161,3.67757,16.31989,7.828c7.97324,6.9548,14.60818,15.08918,20.08914,24.11887
		c10.71442,17.65182,16.60709,36.92693,18.26865,57.41749c1.10132,13.58096,0.50641,27.12878-4.21097,40.15038
		c-1.13834,3.1422-2.64023,6.15263-4.21637,9.77924c4.19272-4.29945,7.82632-10.9594,9.8042-17.43335
		c4.3429-14.21489,3.9913-28.60106,1.19406-42.96346c-5.19409-26.66928-16.32346-50.23659-36.86749-68.71173
		c-0.38095-0.34258-0.69391-0.76073-1.0386-1.14363c24.13068,14.28573,36.6806,36.24672,41.48584,63.06461
		c11.32788-1.32568,24.50674-0.09064,34.91412,3.17374c28.58823,8.96701,45.87143,35.14973,42.25934,64.94112
		c-1.13535,9.36397-3.88605,18.5235-5.68588,27.81757c-2.6749,13.81311-2.98245,27.55124,2.07779,40.99301
		c3.07739,8.17459,7.4776,15.50473,13.76526,21.92764c0.4809-1.12711,0.86047-1.95157,1.18884-2.79587
		c10.41107-26.76703,13.91785-54.41525,9.97723-82.86172c-5.07599-36.64238-19.87747-68.90164-46.06125-95.15349
		c-44.08188-44.19643-97.02875-60.65195-158.26396-47.1392c-32.5106,7.1741-60.45982,23.31936-83.50526,47.56582
		c-28.54848,30.0363-44.49,65.77007-47.25714,107.07899c-1.82127,27.18852,3.10569,53.2935,14.38751,78.25566
		c11.36267,25.14105,28.05798,46.0433,49.1358,63.53983c18.23654,15.13803,39.25385,24.9881,62.00923,31.21881
		c25.73401,7.0463,51.70082,7.64539,77.80342,2.27814c1.31775-0.27097,2.72321-1.34018,3.58029-2.43503
		c7.47742-9.55185,14.79166-19.23141,22.25049-28.79807c5.57846-7.15497,11.35168-14.15805,16.93698-21.30777
		c3.46265-4.43256,3.91266-9.28735,1.34421-14.33456c-3.60065-7.07578-7.07773-14.22125-10.91119-21.16946
		c-2.80499-5.08408-5.13702-5.81635-10.89944-4.48468c-5.35352,1.23715-10.66461,2.74817-16.07819,3.61575
		c-9.53671,1.52832-15.89731-5.59332-13.46622-14.92786c1.0274-3.94498-0.40317-6.99289-3.28702-9.14532
		c-2.44348-1.82388-3.55829-3.48593-1.83316-6.15598c-1.38089-1.15475-2.57843-2.15616-3.78098-3.16135
		c1.62894,0.03442,4.1214,0.74942,4.72885-0.0213c2.01663-2.55856,4.19052-1.89572,6.56198-1.29727
		c3.25018,0.82019,6.49933,1.64474,9.74893,2.46741c-5.08096-3.84171-10.78482-5.2189-16.87527-4.07581
		C277.05307,296.98685,275.83307,298.69968,274.48941,299.75345z M359.47305,271.7608
		c-0.19415-0.02017-0.38831-0.04034-0.58246-0.06055c-0.25668,1.45886-0.68411,2.91132-0.73972,4.37781
		c-0.21243,5.60107-0.27951,11.20746-0.44922,16.81039c-0.20377,6.72635-3.099,12.11322-8.21927,16.3992
		c-5.51273,4.61456-12.0636,7.11456-18.77948,9.25919c-3.75244,1.19827-7.55649,2.23489-11.33728,3.34433
		c2.41071,0.0723,4.6991-0.34116,6.96216-0.86444c8.14896-1.88409,16.28806-3.84149,23.28354-8.75888
		c5.60028-3.93658,9.50143-9.13721,9.78522-16.14154C359.72513,288.01672,359.47305,279.8837,359.47305,271.7608z
		 M292.82016,270.77988c3.23111,0.50104,3.13586,3.5697,3.4473,6.40515c0.69684,6.34479,3.91788,11.50763,7.67639,16.48944
		c-4.1824-9.92087-7.09509-19.59082,3.81827-27.12851C302.68619,267.98425,297.61765,269.42047,292.82016,270.77988z
		 M362.73749,263.15448c2.1239-2.64301,4.53076-5.10901,6.31619-7.96371c4.5127-7.21529,6.98151-14.96956,4.16544-23.47926
		c-1.53586-4.64124-5.0618-6.96271-8.83688-6.36249c-4.49731,0.71512-7.60458,4.45497-7.8302,9.73257
		c0.39999-0.78641,0.66675-1.32076,0.94217-1.85057c1.58209-3.04341,3.2735-6.1377,7.35785-5.78105
		c4.16888,0.36403,5.90021,3.50598,7.08334,7.04466c2.49445,7.46075-0.93744,18.97252-7.12424,22.36893
		C362.57178,258.0929,361.95587,260.28717,362.73749,263.15448z M281.38464,275.06714
		c-0.17352,0.19363-0.34705,0.38724-0.52057,0.58087c2.45477,3.97995,1.71869,6.40326-2.55917,7.60403
		c-1.2005,0.33688-2.63623-0.16412-3.96408-0.28073c0.31738-1.15988,0.63474-2.31973,0.95215-3.47958
		c0.0947-0.34598,0.18964-0.69186,0.43002-1.56888c-1.11478,0.65921-1.91901,0.91568-2.38583,1.461
		c-0.74881,0.87469-1.27423,1.9407-1.89404,2.9259c0.91275,0.57376,1.75882,1.34857,2.7525,1.6785
		c1.92294,0.63846,3.92667,1.38846,5.90146,1.40143c1.53497,0.01004,3.82059-0.61252,4.431-1.7041
		c0.79825-1.42743,0.72708-3.74597,0.17471-5.39462C284.26755,276.99164,282.53885,276.12564,281.38464,275.06714z
		 M298.26663,240.22011c-8.82562-3.33757-14.5293,2.34496-20.82941,6.56213c2.98929,1.81812,5.08551-0.17403,7.00409-1.76833
		c3.22357-2.67885,6.62454-4.63684,10.95114-4.56212C296.27319,240.46698,297.15686,240.31461,298.26663,240.22011z
		 M343.98221,180.95554c5.58737,5.06435,11.08112,10.04382,16.37659,14.8436
		C357.08408,188.73618,351.51169,183.80254,343.98221,180.95554z M341.57993,192.26349
		c5.86508,3.12317,11.73013,6.24635,17.59521,9.36952C354.39212,196.41786,348.86679,192.60027,341.57993,192.26349z
		 M360.74869,238.54422c1.73596-0.34895,3.91623-1.5309,5.09494-0.88504c3.57025,1.95625,2.8569,5.59018,2.61987,9.02066
		c0.79846-2.26262,1.41791-4.56618,1.36249-6.85336c-0.06125-2.5302-1.1412-5.27193-3.94397-5.39372
		C363.25644,234.31868,361.37067,236.34581,360.74869,238.54422z M327.52924,167.54956
		c-0.23257,0.53401-0.46515,1.06799-0.69772,1.60199c5.53561,2.50832,11.07123,5.01663,16.60684,7.52496
		c0.16943-0.35956,0.3389-0.71913,0.50836-1.07869C338.47424,172.91507,333.00174,170.23232,327.52924,167.54956z
		 M304.53802,251.7673c-4.53601,2.74966-8.78876,5.32764-13.03397,7.90103
		C296.72092,260.16901,302.08884,257.03046,304.53802,251.7673z M290.48602,302.00146
		c-0.07043-0.28598-0.14081-0.57196-0.21124-0.85797c-3.54099,1.49503-7.08194,2.99002-10.62292,4.48502
		c0.09836,0.24612,0.19669,0.49222,0.29507,0.73831C283.94443,306.15237,286.85837,303.16299,290.48602,302.00146z"/>
	<path d="M229.74257,184.65718c2.82681,8.87799,4.71701,18.09879,6.38725,27.28123
		c0.80573,4.42943,0.33502,9.14456,0.04645,13.70528c-0.32289,5.1028,0.22063,9.95749,2.461,14.5831
		c2.45204,5.06271,3.269,9.86678-1.75064,14.09241c-0.71289,0.60011-1.06323,2.33885-0.76788,3.30083
		c1.03845,3.38232,2.25536,6.73697,3.73483,9.95007c1.87117,4.06375,4.07474,7.97403,6.11189,11.96228
		c0.34113,0.66782,0.56534,1.39529,0.5647,2.20764c-4.32162-8.80991-10.55168-16.70441-12.4888-26.61629
		c-2.78677,0.35783-2.78677,0.35783-4.17126,9.16792c-9.49829-3.23987-19.81673-4.43732-26.98416-12.74187
		c3.78003-4.26366,8.92546-4.1692,13.95819-5.43774c-2.50226-1.1846-5.00455-2.3692-7.43192-3.51834
		c4.44865-2.61671,7.78836-2.36844,11.97379,0.7003c2.94574,2.15979,5.89352,4.39992,9.11275,6.08331
		c4.44235,2.32295,7.72974-0.05614,7.42743-5.0555c-0.06128-1.01335-0.0883-2.10062-0.47047-3.0114
		c-3.15541-7.51942-2.54649-15.35931-2.25153-23.21487c0.12833-3.41707-0.32773-6.85611-1.1459-10.34839
		c-1.06496,2.08572-2.12993,4.17146-3.57837,7.00819c-9.29538-17.51752-24.08032-26.97807-41.15268-33.9975
		c0.70958-0.36362,1.03581-0.53079,1.37288-0.70351c-0.1028-0.15657-0.16844-0.38721-0.31197-0.45647
		c-7.20438-3.47595-14.76915-6.1758-22.7206-6.55264c-5.81924-0.27582-11.73903,0.85696-17.56741,1.68852
		c-5.78015,0.82466-11.502,2.05821-17.24942,3.11241c0.04047,0.26743,0.0809,0.53484,0.12135,0.80223
		c1.05125,0.1498,2.10252,0.29959,4.04692,0.57666c-2.74007,0.40358-4.56503,0.67239-6.39,0.94118
		c0.01602,0.15474,0.03207,0.30949,0.0481,0.46422c1.48761,0.0952,3.04384-0.05598,4.44888,0.33551
		c3.18224,0.88667,6.65404-0.10188,9.54665,3.17578c1.8741,2.12358,5.91435,2.32886,8.97557,3.41742
		c0.54709,0.19453,1.05292,0.50504,1.57779,0.76198c-0.08499,0.3058-0.17,0.61159-0.255,0.91739
		c-5.56317-1.32082-11.10014-2.76826-16.69669-3.9281c-6.04892-1.2536-12.06142-1.22559-18.29002,1.99937
		c4.37081-6.29527,9.42495-10.98361,15.49245-14.43066c1.82552-1.03714,4.32576-1.25269,6.5092-1.22545
		c6.72311,0.08372,13.44174,0.48938,20.1638,0.72015c2.03328,0.06982,4.24846,0.48962,6.07458-0.13898
		c4.97844-1.71376,9.70251,0.25238,14.37215,0.30879c-3.98621-2.63846-18.60115-5.30788-32.60599-6.06494
		c12.13045-4.45993,24.89407-5.90587,37.85718-4.69005c11.63896,0.94891,24.2567,4.95543,40.94987,21.19241 M196.05243,164.48712
		c-3.73804,0.29811-4.79916,2.03171-2.56532,4.93698c2.6431,3.43755,5.69241,6.65274,8.98027,9.48256
		c4.47015,3.84738,9.41492,7.13713,14.00781,10.84955c6.45941,5.22108,11.57214,11.43529,13.99055,19.83571
		c0.05299-0.35983,0.15729-0.7205,0.1515-1.07941c-0.21269-13.14969-2.29686-25.99301-31.76324-41.66296"/>
	<path d="M232.85291,307.0321c-1.01242,0.8782-1.43123,1.29333-1.90044,1.64029c-3.5845,2.65057-5.86176,5.3714-4.05812,10.54868
		c1.10193,3.16306,0.33601,7.04962,0.08336,10.58804c-0.19081,2.67218-2.43546,3.56729-4.70079,4.10385
		c-6.28644,1.48886-12.33835-0.24194-18.42067-1.44086c-2.09564-0.41312-4.16917-0.93774-6.25456-1.40356
		c-5.45799-1.21912-10.17343,0.14075-12.94324,5.07434c-3.77536,6.7247-7.12271,13.70065-10.41083,20.6832
		c-1.57578,3.34628-0.5063,6.82608,0.68372,10.11801c1.22711,3.39462,2.59639,6.73785,3.28601,10.49603
		c-2.02812-2.64273-4.26219-5.15567-6.03156-7.96158c-2.1431-3.39862-2.31001-7.19901-0.57375-10.8331
		c1.75296-3.66891,3.52739-7.38614,5.80542-10.733c4.32709-6.35721,3.224-12.16046-1.36208-17.57593
		c-3.61674-4.2709-7.40218-8.45673-11.5276-12.22626c-7.26576-6.63892-11.33896-14.47128-11.07048-24.48227
		c0.12004-4.47739-0.27312-8.96915-0.4511-13.4537c-0.21564-5.43411-2.65768-9.49222-7.43774-12.16614
		c-1.62996-0.91177-2.87862-0.79703-3.86188,0.85358c-2.83838,4.76465-5.20992,9.57361-4.72092,15.46237
		c0.69868,8.41425-3.65556,14.23071-10.61119,18.50479c4.23885-4.74832,5.76434-10.39047,5.77339-17.26456
		c-2.79895,2.00989-5.23727,3.76089-7.6756,5.51184c-0.24109-0.19916-0.48217-0.39828-0.72324-0.59741
		c2.30766-3.6257,4.59232-7.2663,6.92896-10.87317c2.79912-4.32071,5.04001-8.86469,5.51543-14.07315
		c0.16338-1.79001,0.02594-3.60745-0.45995-5.48663c-2.68008,6.32001-5.36017,12.64001-8.04025,18.95999
		c-0.26816-0.09625-0.53632-0.19247-0.80448-0.28876c0.45176-5.78839,0.90352-11.57678,1.4054-18.00739
		c-3.11315,4.26276-4.06873,8.53885-4.4373,13.0191c-0.52153,6.33923-1.77573,12.4946-4.74558,18.19101
		c-0.59511,1.14151-1.35638,2.19632-2.43724,3.12131c1.06172-4.71722,2.12344-9.43445,3.18513-14.1517
		c-0.24256-0.06247-0.4851-0.12497-0.72766-0.18747c-0.54034,1.90045-1.08068,3.80087-1.61674,5.68634
		c0-6.56036-0.26274-13.07339,0.13449-19.5459c0.15047-2.45193,1.8226-4.81055,2.77027-7.13593
		c4.53349,1.23508,4.15738,0.96771,5.96558-2.94788c2.37649-5.14626,5.56402-9.91922,8.42884-14.83754
		c0.49246-0.84549,1.11459-1.61543,1.81252-2.61449c-7.14008-1.13979-10.08258,4.0134-14.05904,8.41164
		c1.20908,0,2.00693,0,2.30706,0c-2.73698,4.93452-5.57071,10.04341-8.2213,14.82219
		c-1.15802-4.98801-2.51945-10.71318-3.80655-16.45496c-0.6452-2.87811-1.09566-5.79996-1.74625-8.6767
		c-0.44946-1.98747,0.12289-3.36163,1.95508-4.25607c3.28435-1.60342,6.55495-3.235,10.55259-5.21138
		c-5.06223-0.9446-9.20925-0.73682-13.56359,2.52396c-0.14594-3.03722-0.46353-5.61746-0.32466-8.17287
		c0.09265-1.70493,5.62485-3.6394,7.4678-2.96581c1.06073,0.3877,2.2702,0.56302,3.40173,0.52298
		c2.54398-0.09006,5.07793-0.45311,7.62198-0.55647c2.51936-0.10236,5.04613-0.02238,7.74286-0.02238
		c-4.05948,2.6279-9.73911,0.00781-13.3827,4.44145c11.54647,0.6852,23.21684-3.90723,34.25301,1.34862
		c-0.02765,0.30045-0.05531,0.60088-0.08296,0.90132c-0.78157-0.1869-1.57007-0.34891-2.34358-0.56474
		c-5.60445-1.56378-9.52045,0.15904-11.9054,5.59761c-3.21127,7.32285-3.27084,14.80931-0.56599,22.31819
		c2.00294,5.56038,4.6539,10.56761,10.11252,13.67006c4.07701,2.31726,5.79124,6.10999,5.52351,10.81796
		c-0.27187,4.78067-0.51338,9.56448-0.66718,14.35019c-0.32341,10.06476,4.94893,17.06793,12.9465,22.11011
		c13.41193,8.45572,28.03305,13.93314,43.76353,16.18738c2.25865,0.32367,4.71242-0.0108,6.96832-0.51862
		c4.60497-1.03659,6.79974-4.89816,5.86977-9.85031c-0.18678-0.99469-0.41434-2.03729-0.88943-2.91336
		C222.11449,310.82437,224.96001,308.16806,232.85291,307.0321z M117.07043,242.32945
		c-0.34139,0.63873-0.55754,1.04311-0.77367,1.44748c1.09393,0.13344,2.48703,0.76669,3.2336,0.31981
		c5.15319-3.08456,10.20238-6.3479,15.21031-9.66643c1.172-0.77663,2.05737-1.98576,3.07462-2.99593
		c-0.16129-0.27232-0.32257-0.54462-0.48386-0.81694c-4.6467,1.27484-9.29343,2.54968-13.94012,3.82452
		c-0.14965-0.35022-0.29929-0.70042-0.44892-1.05063c3.03331-1.64035,6.06661-3.2807,9.09994-4.92104
		c-0.11047-0.24028-0.22095-0.48056-0.33142-0.72084c-4.09426,1.84744-8.25198,3.57024-12.24985,5.60686
		c-1.48888,0.75847-2.75536,2.12425-3.85281,3.43887c-1.52265,1.82391-2.24292,3.96979-1.4725,6.56474
		C115.16833,242.99736,116.00077,242.70506,117.07043,242.32945z M129.24544,258.18561
		c2.9106-0.00159,6.32509-5.85506,5.7218-10.4915C133.01634,251.27127,131.15797,254.67879,129.24544,258.18561z
		 M137.81877,264.09229c0.33138,0.02271,0.66278,0.04538,0.99417,0.06805c0.22478-2.82898,0.44955-5.65799,0.67433-8.487
		c-0.39041-0.02777-0.78084-0.05553-1.17126-0.08328C135.37093,258.25504,139.07523,261.32455,137.81877,264.09229z"/>
	<path d="M142.08948,198.70638c5.9445,0.96654,11.88899,1.93309,17.8335,2.89963c-0.04602,0.36333-0.09207,0.72665-0.13809,1.08998
		c-1.50757,0-3.01511,0-4.83562,0c6.45998,2.83698,12.55322,5.51289,18.64648,8.18884
		c-0.12914,0.35387-0.25824,0.70775-0.38737,1.06161c-1.73674-0.47284-3.46547-0.97801-5.21233-1.41003
		c-1.97061-0.48737-3.93796-1.07349-5.94295-1.31137c-1.88127-0.22316-3.8098-0.04778-5.82248,0.40382
		c0.49461,0.20831,0.97762,0.45169,1.48555,0.61972c8.28418,2.74026,14.9223,8.63547,22.96669,11.92194
		c3.5316,1.44281,6.02766,4.64394,7.16478,8.6351c-4.97554-6.53387-11.92697-8.99376-20.02806-10.11743
		c0.57809,0.96687,0.95399,1.59557,1.56328,2.61459c-8.18788-2.06584-15.89604-4.01067-23.60422-5.95547
		c0.00018-0.12711,0.0004-0.25418,0.00058-0.38129c2.86018,0,5.72034,0,8.58051,0c0.0004-0.3127,0.00081-0.62538,0.00125-0.9381
		c-4.04198,0-8.08395,0-12.63857,0c2.17171-0.82716,3.91286-1.49034,6.41454-2.44319
		c-2.18118-0.31912-3.56439-0.75211-4.92203-0.68303c-9.31563,0.47417-18.65317,0.80035-27.91628,1.79926
		c-2.00232,0.21591-3.73043,2.9745-5.34515,4.35672c-0.68847-3.91145,0.29683-5.57928,5.49747-7.04396
		c11.42895-3.21878,22.78601-6.92633,34.89922-6.5392c0.49718,0.01591,0.99734-0.06241,1.4902-0.37943
		c-12.92134-2.19643-25.81792-2.05363-39.18127,0.71329c2.10155-1.75842,3.82432-3.19991,5.7744-4.83162
		c-1.75591,0-3.28939,0-5.65828,0c1.67889-3.43776,3.05708-6.43182,4.62566-9.32257c0.30338-0.55911,1.34609-0.99904,2.05569-1.0107
		c5.15868-0.08466,10.31937-0.04552,15.54409,0.50562c-5.28549,1.03242-10.57099,2.06488-15.85648,3.09731
		c13.42958-0.33212,26.76692-1.03157,39.65082,3.34674c-0.02084,0.29938-0.0417,0.59879-0.06258,0.89818
		c-2.71028-0.25594-5.42047-0.71147-8.13086-0.7128c-2.82527-0.0014-5.65074,0.43521-8.47612,0.68031
		C142.11346,198.54135,142.10147,198.62387,142.08948,198.70638z"/>
	<path d="M170.69336,241.17088c0.42488,0.4872,0.84976,0.97437,1.65233,1.89464c-1.53435-0.50806-2.60057-0.86111-4.39748-1.4561
		c3.97598,7.68036,4.1982,16.58812,11.30937,22.21889c0.72577-2.23746,0.72577-2.23746-2.74084-11.55121
		c11.49973,6.8912,24.99913,23.12491,27.82111,33.53934c1.85951,6.8624,1.15538,13.44931-2.40311,19.74442
		c1.12187-7.57916-0.41272-14.49652-5.22983-20.42123c-2.29865-2.82724-4.78426-5.71121-7.75011-7.74619
		c-7.40678-5.08215-12.69942-11.99185-17.85594-19.09634c-0.53387-0.73553-1.05846-1.47781-1.95734-2.06299
		c0.6783,1.80338,1.35657,3.60675,2.32692,6.18671c-3.94096-2.34958-6.00597-5.16461-6.81902-8.69962
		c-1.18239-5.14091-1.93852-10.37857-3.03973-15.54012c-0.47963-2.24808-1.3645-4.40973-2.35327-7.51489
		c6.67268,3.68169,12.59865,6.93135,16.54292,13.0538c-1.6356-0.93703-3.27119-1.87408-4.90678-2.81111
		C170.82616,240.9962,170.75977,241.08353,170.69336,241.17088z"/>
	<path d="M155.20341,239.49812c-1.98256-2.99506-3.35292-6.52142-6.48453-5.51701c-1.50887,0.48395-2.11769,4.34702-2.75053,6.77977
		c-0.39474,1.51735-0.07338,3.22099-0.70947,5.04469c-0.26836-0.60474-0.63518-1.18552-0.78906-1.8181
		c-0.96919-3.98415-0.75139-7.92105,0.94273-11.6608c1.61095-3.55614,4.82397-4.51106,7.67552-1.87584
		c5.52652,5.10728,8.14297,11.60205,7.38666,19.18527c-0.09088,0.91135-1.34106,1.96822-2.30704,2.47809
		c-2.17648,1.14876-2.37636,2.5728-1.1459,4.46909c0.27667,0.42639,0.842,0.79663,0.87698,1.22516
		c0.12813,1.56894,0.0885,3.15158,0.11206,4.7291c-1.46231-0.31488-3.26337-0.19144-4.33116-1.01675
		c-6.25751-4.83646-8.26366-12.12918-5.70689-19.69083C149.4758,237.38477,150.47157,236.96718,155.20341,239.49812z"/>
	<path d="M234.03139,301.49603c-2.58881-4.86423-2.58881-4.86423-2.70374-11.42331c-2.96516-1.51102-5.82791-2.6723-8.29601-4.39792
		c-0.80426-0.56232-0.92302-2.6395-0.76129-3.95053c0.52386-4.24698,3.26395-6.75693,6.93533-6.71198
		c4.11632,0.05038,6.79744,2.284,7.37659,6.65527c-1.16728-0.80722-2.03917-1.37695-2.87527-1.99512
		c-1.86221-1.3768-4.22301-2.33453-5.73558-0.41537c-0.98636,1.25153-0.99727,3.8631-0.47919,5.57272
		c0.80931,2.67078,3.13995,3.66617,6.03847,3.57535c3.423-0.1073,6.88768-0.12338,10.27821,0.28568
		c4.22112,0.50928,4.911-0.09912,3.76714-4.31769c-0.07306-0.26944-0.00952-0.5759-0.00952-0.86517
		c0.27347-0.01678,0.54695-0.0336,0.8204-0.05042c0.05608,1.74899,0.77782,3.95535-0.02052,5.11722
		c-0.78548,1.14316-3.09311,1.59439-4.76855,1.68442c-2.2011,0.11829-4.44577-0.35574-6.65584-0.68225
		c-2.31775-0.34247-3.32643,0.71271-3.06682,2.88849c0.27483,2.30307,0.86121,4.56784,1.17274,6.86813
		c0.10963,0.80954,1.12256,2.41431-1.12323,2.0535L234.03139,301.49603z"/>
	<path d="M233.92471,301.38705c-0.18117,2.99893-2.26994,4.31348-5.02802,3.92801
		c-3.37941-0.47232-6.84302-0.35791-10.27136-0.45764c-1.67902-0.04886-3.36066-0.00845-5.26509-0.00845
		c4.58257-4.57999,14.62001-6.11212,20.67029-3.35281C234.03139,301.49603,233.92471,301.38705,233.92471,301.38705z"/>
	<path d="M128.96373,205.85709c-6.16117,1.77872-12.32234,3.55743-18.30187,5.28371
		c-0.01225-3.70685,0.20045-4.1823,4.49291-4.80705c4.57452-0.66579,9.2051-0.94655,13.8112-1.39543
		C128.96523,205.24457,128.96448,205.55083,128.96373,205.85709z"/>
	<path d="M166.19472,223.9281c3.39375,1.1423,6.78751,2.28461,10.18129,3.42691c-0.09538,0.32396-0.19077,0.6479-0.28613,0.97185
		c-3.43874-0.9994-6.87747-1.99879-10.31621-2.99818C165.91403,224.86182,166.05437,224.39496,166.19472,223.9281z"/>
</g>
</svg>
