<?xml version="1.0" encoding="utf-8"?>
<!-- Generator: Adobe Illustrator 27.5.0, SVG Export Plug-In . SVG Version: 6.00 Build 0)  -->
<svg version="1.1" id="Ebene_1" xmlns="http://www.w3.org/2000/svg" xmlns:xlink="http://www.w3.org/1999/xlink" x="0px" y="0px"
	 viewBox="0 0 512 512" style="enable-background:new 0 0 512 512;" xml:space="preserve">
<g>
	<path d="M256.15356,451.31277c-112.25261,0.31934-194.52185-92.18298-195.33215-193.07568
		C60.0079,156.94109,141.51436,61.98968,254.12102,61.67647c111.40089-0.30985,196.06224,90.18681,196.02608,194.81752
		C450.40198,363.02615,362.80832,451.00937,256.15356,451.31277z M232.42094,296.7074
		c-6.09044-1.1431-11.79428,0.2341-16.87526,4.07581c3.24962-0.82266,6.49875-1.64722,9.74893-2.46741
		c2.37148-0.59845,4.54535-1.26129,6.56197,1.29727c0.60748,0.77072,3.09993,0.05573,4.72887,0.0213
		c-1.20255,1.00519-2.40009,2.00659-3.78096,3.16135c1.72511,2.67004,0.61032,4.33209-1.83319,6.15598
		c-2.88382,2.15244-4.31442,5.20035-3.28702,9.14532c2.43111,9.33453-3.92949,16.45618-13.46619,14.92786
		c-5.4136-0.86758-10.72467-2.3786-16.0782-3.61575c-5.76242-1.33167-8.09444-0.5994-10.89943,4.48468
		c-3.8335,6.94821-7.31056,14.09369-10.91122,21.16946c-2.56842,5.04721-2.11842,9.90201,1.34422,14.33456
		c5.5853,7.14972,11.35852,14.1528,16.93698,21.30777c7.45885,9.56665,14.77306,19.24622,22.2505,28.79807
		c0.85707,1.09485,2.26253,2.16406,3.58029,2.43503c26.10258,5.36725,52.06941,4.76816,77.80342-2.27814
		c22.75537-6.23071,43.77267-16.08078,62.00922-31.21881c21.07782-17.49652,37.77313-38.39877,49.1358-63.53983
		c11.28183-24.96216,16.20877-51.06714,14.38751-78.25566c-2.76715-41.30893-18.70865-77.04269-47.25714-107.07899
		c-23.04544-24.24646-50.99466-40.39172-83.50525-47.56582c-61.23521-13.51275-114.1821,2.94276-158.26398,47.1392
		c-26.18377,26.25185-40.98525,58.51111-46.06126,95.15349c-3.9406,28.44647-0.43383,56.0947,9.97724,82.86172
		c0.32836,0.8443,0.70794,1.66876,1.18884,2.79587c6.28767-6.42291,10.68787-13.75305,13.76527-21.92764
		c5.06024-13.44177,4.75269-27.1799,2.07778-40.99301c-1.79982-9.29407-4.55054-18.4536-5.68587-27.81757
		c-3.61208-29.79138,13.67112-55.97411,42.25935-64.94112c10.40736-3.26437,23.58623-4.49942,34.91411-3.17374
		c4.80522-26.81789,17.35516-48.77888,41.48584-63.06461c-0.34468,0.3829-0.65764,0.80105-1.0386,1.14363
		c-20.54404,18.47514-31.67339,42.04245-36.86749,68.71173c-2.79723,14.3624-3.14882,28.74857,1.19406,42.96346
		c1.97789,6.47395,5.6115,13.1339,9.8042,17.43335c-1.57616-3.6266-3.07803-6.63704-4.21635-9.77924
		c-4.71739-13.02159-5.31232-26.56941-4.21097-40.15038c1.66154-20.49055,7.55421-39.76567,18.26865-57.41749
		c5.48096-9.02969,12.11589-17.16406,20.08914-24.11887c4.75826-4.15043,10.50305-6.35754,16.31987-7.828
		c-4.39531,6.24777-9.30327,12.17372-13.0629,18.75561c-14.04961,24.59622-17.71475,50.50386-8.38887,77.67432
		c4.30493,12.54221,7.0237,25.26274,6.60265,38.64198c-0.09224,2.93077,1.64632,5.99126,2.84004,8.86823
		c1.00955,2.43312,2.47919,4.67242,3.69444,7.02376c2.00661,3.88258,1.1929,7.20975-1.88228,10.23349
		c-3.06052,3.00926-3.16676,3.96451-1.06134,7.64922c3.0827,5.39493,6.34521,10.6886,9.35895,16.12091
		c1.42334,2.56555,2.70682,5.27103,3.58556,8.06061c1.08292,3.43787-0.83208,5.89029-4.46031,5.88992
		c-2.1144-0.00021-4.25378-0.41797-6.33653-0.86136c-2.45528-0.52277-3.71658,0.51175-3.41132,2.80862
		c0.37659,2.83386,1.29576,5.59247,1.84726,8.40964c0.08276,0.42267-0.55949,0.9873-0.86638,1.48627
		C235.12993,298.69968,233.90994,296.98685,232.42094,296.7074z M151.56647,296.12631
		c0.28378,7.00433,4.18494,12.20496,9.78522,16.14154c6.9955,4.91739,15.13458,6.87479,23.28354,8.75888
		c2.26305,0.52328,4.55147,0.93674,6.96217,0.86444c-3.78081-1.10944-7.58485-2.14606-11.33731-3.34433
		c-6.71585-2.14462-13.26672-4.64462-18.77948-9.25919c-5.12024-4.28598-8.0155-9.67285-8.21925-16.3992
		c-0.16969-5.60294-0.23679-11.20932-0.44922-16.81039c-0.0556-1.46649-0.48303-2.91895-0.7397-4.37781
		c-0.19415,0.0202-0.38832,0.04037-0.58247,0.06055C151.48996,279.8837,151.23788,288.01672,151.56647,296.12631z
		 M203.20088,266.54596c10.91339,7.53769,8.00067,17.20764,3.81828,27.12851c3.7585-4.98181,6.97955-10.14465,7.67639-16.48944
		c0.31143-2.83545,0.2162-5.90411,3.4473-6.40515C213.34535,269.42047,208.27682,267.98425,203.20088,266.54596z
		 M146.15187,256.86356c-6.1868-3.39641-9.6187-14.90817-7.12424-22.36893c1.18311-3.53868,2.91446-6.68063,7.08333-7.04466
		c4.08435-0.35664,5.77576,2.73764,7.35785,5.78105c0.27542,0.52982,0.54218,1.06416,0.94218,1.85057
		c-0.22562-5.2776-3.3329-9.01746-7.8302-9.73257c-3.77509-0.60022-7.30103,1.72125-8.8369,6.36249
		c-2.81606,8.5097-0.34726,16.26398,4.16542,23.47926c1.78545,2.85471,4.19231,5.32071,6.31622,7.96371
		C149.00716,260.28717,148.39124,258.0929,146.15187,256.86356z M226.26022,278.29095
		c-0.55237,1.64865-0.62354,3.96719,0.1747,5.39462c0.61043,1.09158,2.89604,1.71414,4.43103,1.7041
		c1.97478-0.01297,3.97852-0.76297,5.90144-1.40143c0.9937-0.32993,1.83975-1.10474,2.7525-1.6785
		c-0.6198-0.9852-1.14523-2.05121-1.89404-2.9259c-0.46681-0.54532-1.27107-0.80179-2.38582-1.461
		c0.24037,0.87701,0.33531,1.2229,0.43001,1.56888c0.31741,1.15985,0.63475,2.3197,0.95216,3.47958
		c-1.32785,0.11661-2.7636,0.61761-3.9641,0.28073c-4.27785-1.20078-5.01395-3.62408-2.55917-7.60403
		c-0.17352-0.19363-0.34703-0.38724-0.52057-0.58087C228.42416,276.12564,226.69548,276.99164,226.26022,278.29095z
		 M215.57056,240.4518c4.32661-0.07472,7.72757,1.88327,10.95116,4.56212c1.91855,1.5943,4.0148,3.58644,7.00409,1.76833
		c-6.30011-4.21718-12.00381-9.8997-20.82942-6.56213C213.80615,240.31461,214.68983,240.46698,215.57056,240.4518z
		 M150.60422,195.79913c5.29547-4.79977,10.78923-9.77925,16.37659-14.8436
		C159.45132,183.80254,153.87895,188.73618,150.60422,195.79913z M151.78786,201.63301
		c5.8651-3.12317,11.73015-6.24635,17.59525-9.36952C162.09624,192.60027,156.57089,196.41786,151.78786,201.63301z
		 M145.08101,234.43275c-2.8028,0.1218-3.88272,2.86353-3.944,5.39372c-0.0554,2.28719,0.56403,4.59074,1.36249,6.85336
		c-0.237-3.43048-0.95036-7.06441,2.61989-9.02066c1.17871-0.64586,3.35896,0.53609,5.09494,0.88504
		C149.59236,236.34581,147.70657,234.31868,145.08101,234.43275z M167.0163,175.59782
		c0.16946,0.35956,0.33893,0.71913,0.50836,1.07869c5.53561-2.50833,11.07123-5.01665,16.60684-7.52496
		c-0.23257-0.534-0.46513-1.06798-0.69771-1.60199C177.96129,170.23232,172.48877,172.91507,167.0163,175.59782z
		 M219.45897,259.66833c-4.24522-2.57339-8.49797-5.15137-13.03398-7.90103
		C208.87418,257.03046,214.24211,260.16901,219.45897,259.66833z M231.0161,306.36682
		c0.09837-0.24609,0.1967-0.49219,0.29507-0.73831c-3.541-1.495-7.08195-2.98999-10.62294-4.48502
		c-0.07043,0.28601-0.14081,0.57199-0.21124,0.85797C224.10466,303.16299,227.0186,306.15237,231.0161,306.36682z"/>
	<path d="M282.1655,182.98109c16.69318-16.23698,29.31091-20.2435,40.94989-21.19241
		c12.9631-1.21582,25.72672,0.23012,37.85715,4.69005c-14.00482,0.75706-28.61978,3.42648-32.60596,6.06494
		c4.66962-0.05641,9.39371-2.02255,14.37213-0.30879c1.82614,0.6286,4.04129,0.2088,6.07458,0.13898
		c6.72208-0.23077,13.44067-0.63643,20.16382-0.72015c2.18344-0.02724,4.68369,0.18831,6.50919,1.22545
		c6.0675,3.44705,11.12164,8.13539,15.49246,14.43066c-6.22861-3.22496-12.24109-3.25298-18.29001-1.99937
		c-5.59656,1.15984-11.13351,2.60728-16.69672,3.9281c-0.08499-0.3058-0.16998-0.61159-0.25497-0.91739
		c0.52487-0.25694,1.0307-0.56744,1.57779-0.76198c3.06122-1.08856,7.10147-1.29384,8.97556-3.41742
		c2.89261-3.27766,6.36441-2.28911,9.54666-3.17578c1.40503-0.39149,2.96127-0.24031,4.44888-0.33551
		c0.01602-0.15472,0.03207-0.30948,0.0481-0.46422c-1.82498-0.26878-3.64993-0.5376-6.39001-0.94118
		c1.9444-0.27707,2.99567-0.42686,4.04694-0.57666c0.04044-0.2674,0.08087-0.53481,0.12134-0.80223
		c-5.74744-1.0542-11.46927-2.28775-17.24942-3.11241c-5.82837-0.83156-11.74817-1.96434-17.56741-1.68852
		c-7.95145,0.37685-15.5162,3.07669-22.72058,6.55264c-0.14352,0.06926-0.20917,0.2999-0.31198,0.45647
		c0.33707,0.17271,0.6633,0.33989,1.37289,0.70351c-17.07239,7.01942-31.8573,16.47998-41.15271,33.9975
		c-1.44843-2.83673-2.5134-4.92247-3.57837-7.00819c-0.81815,3.49228-1.2742,6.93132-1.14587,10.34839
		c0.29495,7.85556,0.90387,15.69545-2.25153,23.21487c-0.38217,0.91078-0.40921,1.99805-0.47049,3.0114
		c-0.30231,4.99936,2.98508,7.37845,7.42743,5.0555c3.21924-1.6834,6.16702-3.92352,9.11276-6.08331
		c4.18542-3.06874,7.52512-3.31702,11.97379-0.7003c-2.42737,1.14914-4.92966,2.33374-7.43192,3.51834
		c5.03271,1.26854,10.17816,1.17409,13.95819,5.43774c-7.16745,8.30455-17.48587,9.502-26.98416,12.74187
		c-1.38449-8.81009-1.38449-8.81009-4.1713-9.16792c-1.9371,9.91188-8.16714,17.80638-12.4888,26.61629
		c-0.00061-0.81235,0.2236-1.53983,0.5647-2.20764c2.03717-3.98825,4.24075-7.89853,6.11191-11.96228
		c1.47949-3.2131,2.69638-6.56775,3.73483-9.95007c0.29535-0.96198-0.05499-2.70071-0.76788-3.30083
		c-5.01962-4.22563-4.20267-9.02969-1.75064-14.09241c2.24039-4.62561,2.78391-9.4803,2.461-14.5831
		c-0.28857-4.56071-0.75928-9.27585,0.04645-13.70528c1.67026-9.18245,3.56046-18.40324,6.38727-27.28123 M312.10901,166.84955
		c-29.46637,15.66995-31.55054,28.51328-31.76324,41.66296c-0.00577,0.3589,0.09851,0.71957,0.15149,1.07941
		c2.41843-8.40042,7.53116-14.61462,13.99057-19.83571c4.5929-3.71242,9.53766-7.00217,14.00781-10.84955
		c3.28787-2.82982,6.33719-6.04501,8.98029-9.48256c2.23383-2.90527,1.1727-4.63887-2.56534-4.93698"/>
	<path d="M285.40894,317.1665c-0.47513,0.87607-0.70267,1.91867-0.88943,2.91336c-0.92999,4.95215,1.26477,8.81372,5.86975,9.85031
		c2.25589,0.50781,4.70969,0.84229,6.96832,0.51862c15.73047-2.25424,30.35162-7.73166,43.76355-16.18738
		c7.99756-5.04218,13.2699-12.04535,12.94647-22.11011c-0.15378-4.78571-0.39529-9.56952-0.66718-14.35019
		c-0.2677-4.70798,1.44653-8.5007,5.52353-10.81796c5.45862-3.10245,8.10959-8.10968,10.11252-13.67006
		c2.70486-7.50888,2.64529-14.99535-0.56598-22.31819c-2.38498-5.43857-6.30096-7.16139-11.90543-5.59761
		c-0.7735,0.21584-1.56198,0.37784-2.34357,0.56474c-0.02765-0.30045-0.0553-0.60088-0.08295-0.90132
		c11.03616-5.25584,22.70654-0.66342,34.25299-1.34862c-3.64359-4.43364-9.32321-1.81355-13.38269-4.44145
		c2.69675,0,5.22348-0.07997,7.74286,0.02238c2.54407,0.10336,5.078,0.46642,7.62198,0.55647
		c1.13153,0.04004,2.341-0.13528,3.40173-0.52298c1.84296-0.6736,7.37515,1.26088,7.4678,2.96581
		c0.13889,2.5554-0.17871,5.13565-0.32465,8.17287c-4.35434-3.26077-8.50137-3.46855-13.5636-2.52396
		c3.99765,1.97638,7.26825,3.60796,10.55258,5.21138c1.83218,0.89444,2.40454,2.2686,1.95508,4.25607
		c-0.65057,2.87674-1.10104,5.79858-1.74625,8.6767c-1.28711,5.74178-2.64853,11.46695-3.80655,16.45496
		c-2.6506-4.77878-5.48431-9.88766-8.22131-14.82219c0.30014,0,1.09799,0,2.30707,0
		c-3.97644-4.39824-6.91895-9.55142-14.05905-8.41164c0.69794,0.99905,1.32007,1.769,1.81253,2.61449
		c2.86481,4.91832,6.05234,9.69128,8.42883,14.83754c1.8082,3.91559,1.4321,4.18295,5.96558,2.94788
		c0.94769,2.32538,2.61981,4.68399,2.77029,7.13593c0.39722,6.4725,0.13449,12.98553,0.13449,19.5459
		c-0.53607-1.88547-1.07642-3.78589-1.61676-5.68634c-0.24255,0.0625-0.48508,0.125-0.72766,0.18747
		c1.06171,4.71725,2.12341,9.43448,3.18515,14.1517c-1.08087-0.92499-1.84213-1.9798-2.43726-3.12131
		c-2.96985-5.69641-4.22403-11.85178-4.74557-18.19101c-0.36856-4.48026-1.32416-8.75635-4.43729-13.0191
		c0.50186,6.4306,0.95364,12.21899,1.4054,18.00739c-0.26816,0.09628-0.53632,0.1925-0.80447,0.28876
		c-2.68008-6.31998-5.36017-12.63998-8.04025-18.95999c-0.4859,1.87918-0.62332,3.69662-0.45996,5.48663
		c0.4754,5.20847,2.71631,9.75244,5.51544,14.07315c2.33661,3.60687,4.62128,7.24747,6.92896,10.87317
		c-0.24109,0.19913-0.48215,0.39825-0.72324,0.59741c-2.43832-1.75095-4.87668-3.50195-7.6756-5.51184
		c0.00903,6.87408,1.53455,12.51624,5.77338,17.26456c-6.95563-4.27408-11.30988-10.09055-10.61118-18.50479
		c0.48898-5.88876-1.88254-10.69772-4.72092-15.46237c-0.98328-1.6506-2.23193-1.76535-3.86191-0.85358
		c-4.78006,2.67392-7.22208,6.73203-7.43774,12.16614c-0.17795,4.48456-0.57111,8.97632-0.45108,13.4537
		c0.26846,10.01099-3.80472,17.84335-11.07047,24.48227c-4.12543,3.76953-7.91086,7.95535-11.52762,12.22626
		c-4.58606,5.41547-5.68918,11.21872-1.36209,17.57593c2.27805,3.34686,4.05249,7.06409,5.80545,10.733
		c1.73627,3.63409,1.56934,7.43448-0.57376,10.8331c-1.76938,2.80591-4.00342,5.31885-6.03156,7.96158
		c0.68964-3.75818,2.0589-7.10141,3.28601-10.49603c1.19003-3.29193,2.25949-6.77173,0.68372-10.11801
		c-3.28812-6.98254-6.63547-13.9585-10.41083-20.6832c-2.76981-4.93359-7.48523-6.29346-12.94324-5.07434
		c-2.08539,0.46582-4.15891,0.99045-6.25455,1.40356c-6.08234,1.19891-12.13425,2.92972-18.42068,1.44086
		c-2.26532-0.53656-4.50998-1.43167-4.70081-4.10385c-0.25262-3.53842-1.01855-7.42499,0.08337-10.58804
		c1.80365-5.17728-0.4736-7.8981-4.05814-10.54868c-0.46921-0.34695-0.888-0.76208-1.90042-1.64029
		C286.00302,308.16806,288.84854,310.82437,285.40894,317.1665z M396.82727,243.35994
		c0.77045-2.59496,0.05017-4.74083-1.47247-6.56474c-1.09747-1.31462-2.36395-2.6804-3.85281-3.43887
		c-3.99789-2.03662-8.15561-3.75941-12.24985-5.60686c-0.11047,0.24028-0.22095,0.48056-0.33142,0.72084
		c3.03333,1.64034,6.06662,3.28069,9.09991,4.92104c-0.14963,0.3502-0.29926,0.70041-0.44891,1.05063
		c-4.6467-1.27484-9.29343-2.54968-13.94012-3.82452c-0.16129,0.27232-0.32257,0.54462-0.48386,0.81694
		c1.01724,1.01016,1.90262,2.2193,3.07462,2.99593c5.00793,3.31853,10.05713,6.58186,15.21033,9.66643
		c0.74655,0.44688,2.13965-0.18637,3.23358-0.31981c-0.21613-0.40437-0.43228-0.80875-0.77368-1.44748
		C394.96225,242.70506,395.79468,242.99736,396.82727,243.35994z M375.99579,247.69411
		c-0.6033,4.63644,2.81119,10.48991,5.7218,10.4915C379.80502,254.67879,377.94666,251.27127,375.99579,247.69411z
		 M372.647,255.59006c-0.39044,0.02776-0.78085,0.05551-1.17126,0.08328c0.22479,2.82901,0.44955,5.65802,0.67435,8.487
		c0.33139-0.02267,0.66278-0.04535,0.99417-0.06805C371.88779,261.32455,375.59207,258.25504,372.647,255.59006z"/>
	<path d="M368.87354,198.70638c-5.94449,0.96654-11.88901,1.93309-17.8335,2.89963c0.04602,0.36333,0.09207,0.72665,0.13809,1.08998
		c1.50757,0,3.01511,0,4.83563,0c-6.45999,2.83698-12.55322,5.51289-18.64651,8.18884
		c0.12915,0.35387,0.25827,0.70775,0.38739,1.06161c1.73676-0.47284,3.46548-0.97801,5.21231-1.41003
		c1.97064-0.48737,3.93799-1.07349,5.94296-1.31137c1.88126-0.22316,3.80981-0.04778,5.82248,0.40382
		c-0.4946,0.20831-0.97763,0.45169-1.48553,0.61972c-8.28418,2.74026-14.9223,8.63547-22.96671,11.92194
		c-3.53159,1.44281-6.02765,4.64394-7.16476,8.6351c4.97552-6.53387,11.92694-8.99376,20.02805-10.11743
		c-0.57809,0.96687-0.95398,1.59557-1.56326,2.61459c8.18787-2.06584,15.89603-4.01067,23.60422-5.95547
		c-0.00018-0.12711-0.0004-0.25418-0.00058-0.38129c-2.8602,0-5.72034,0-8.58051,0c-0.00043-0.3127-0.00082-0.62538-0.00125-0.9381
		c4.04196,0,8.08395,0,12.63855,0c-2.17169-0.82716-3.91284-1.49034-6.41452-2.44319
		c2.18118-0.31912,3.56436-0.75211,4.92203-0.68303c9.31561,0.47417,18.65317,0.80035,27.91626,1.79926
		c2.00232,0.21591,3.73044,2.9745,5.34515,4.35672c0.68848-3.91145-0.29681-5.57928-5.49747-7.04396
		c-11.42896-3.21878-22.78601-6.92633-34.8992-6.5392c-0.49719,0.01591-0.99734-0.06241-1.4902-0.37943
		c12.92133-2.19643,25.8179-2.05363,39.18124,0.71329c-2.10153-1.75842-3.82431-3.19991-5.77438-4.83162
		c1.75589,0,3.2894,0,5.65826,0c-1.67886-3.43776-3.05707-6.43182-4.62564-9.32257c-0.30341-0.55911-1.3461-0.99904-2.05569-1.0107
		c-5.15869-0.08466-10.31937-0.04552-15.5441,0.50562c5.28549,1.03242,10.57098,2.06488,15.85648,3.09731
		c-13.42957-0.33212-26.76691-1.03157-39.65082,3.34674c0.02084,0.29938,0.04172,0.59879,0.06259,0.89818
		c2.71027-0.25594,5.42044-0.71147,8.13086-0.7128c2.82526-0.0014,5.65073,0.43521,8.4761,0.68031
		C368.84955,198.54135,368.86154,198.62387,368.87354,198.70638z"/>
	<path d="M340.26965,241.17088c-0.42487,0.4872-0.84976,0.97437-1.65231,1.89464c1.53433-0.50806,2.60056-0.86111,4.39746-1.4561
		c-3.97598,7.68036-4.19818,16.58812-11.30939,22.21889c-0.72574-2.23746-0.72574-2.23746,2.74088-11.55121
		c-11.49973,6.8912-24.99915,23.12491-27.82114,33.53934c-1.8595,6.8624-1.15536,13.44931,2.40314,19.74442
		c-1.12189-7.57916,0.41272-14.49652,5.2298-20.42123c2.29868-2.82724,4.78427-5.71121,7.75012-7.74619
		c7.40677-5.08215,12.69943-11.99185,17.85593-19.09634c0.53391-0.73553,1.05847-1.47781,1.95734-2.06299
		c-0.67828,1.80338-1.35657,3.60675-2.3269,6.18671c3.94098-2.34958,6.00598-5.16461,6.81903-8.69962
		c1.18237-5.14091,1.93851-10.37857,3.03973-15.54012c0.47961-2.24808,1.3645-4.40973,2.35327-7.51489
		c-6.6727,3.68169-12.59866,6.93135-16.54294,13.0538c1.63562-0.93703,3.27121-1.87408,4.9068-2.81111
		C340.13687,240.9962,340.20325,241.08353,340.26965,241.17088z"/>
	<path d="M355.75958,239.49812c1.98257-2.99506,3.35294-6.52142,6.48456-5.51701c1.50885,0.48395,2.11768,4.34702,2.75052,6.77977
		c0.39474,1.51735,0.07336,3.22099,0.70947,5.04469c0.26837-0.60474,0.63516-1.18552,0.78906-1.8181
		c0.96921-3.98415,0.75137-7.92105-0.94272-11.6608c-1.61096-3.55614-4.82397-4.51106-7.67554-1.87584
		c-5.52652,5.10728-8.14297,11.60205-7.38666,19.18527c0.09088,0.91135,1.34106,1.96822,2.30704,2.47809
		c2.17648,1.14876,2.37637,2.5728,1.1459,4.46909c-0.27667,0.42639-0.84198,0.79663-0.87698,1.22516
		c-0.12811,1.56894-0.0885,3.15158-0.11206,4.7291c1.46231-0.31488,3.26337-0.19144,4.33118-1.01675
		c6.25751-4.83646,8.26364-12.12918,5.70688-19.69083C361.48721,237.38477,360.49146,236.96718,355.75958,239.49812z"/>
	<path d="M276.93164,301.49603c2.58878-4.86423,2.58878-4.86423,2.70374-11.42331c2.96515-1.51102,5.82788-2.6723,8.29599-4.39792
		c0.80426-0.56232,0.92303-2.6395,0.76129-3.95053c-0.52386-4.24698-3.26395-6.75693-6.93533-6.71198
		c-4.1163,0.05038-6.79745,2.284-7.37659,6.65527c1.1673-0.80722,2.03918-1.37695,2.87527-1.99512
		c1.86221-1.3768,4.22299-2.33453,5.7356-0.41537c0.98636,1.25153,0.99725,3.8631,0.47916,5.57272
		c-0.8093,2.67078-3.13992,3.66617-6.03845,3.57535c-3.423-0.1073-6.88766-0.12338-10.2782,0.28568
		c-4.22113,0.50928-4.91101-0.09912-3.76715-4.31769c0.07306-0.26944,0.00952-0.5759,0.00952-0.86517
		c-0.27347-0.01678-0.54694-0.0336-0.8204-0.05042c-0.05606,1.74899-0.7778,3.95535,0.02054,5.11722
		c0.78546,1.14316,3.09311,1.59439,4.76855,1.68442c2.20108,0.11829,4.44574-0.35574,6.65582-0.68225
		c2.31775-0.34247,3.32645,0.71271,3.06683,2.88849c-0.27484,2.30307-0.86121,4.56784-1.17276,6.86813
		c-0.10965,0.80954-1.12256,2.41431,1.12323,2.0535L276.93164,301.49603z"/>
	<path d="M277.0383,301.38705c0.18118,2.99893,2.26996,4.31348,5.02802,3.92801c3.37943-0.47232,6.84302-0.35791,10.27136-0.45764
		c1.67902-0.04886,3.36066-0.00845,5.26511-0.00845c-4.58258-4.57999-14.62003-6.11212-20.67032-3.35281
		C276.93164,301.49603,277.0383,301.38705,277.0383,301.38705z"/>
	<path d="M381.9993,205.85709c6.16116,1.77872,12.32233,3.55743,18.30185,5.28371c0.01227-3.70685-0.20044-4.1823-4.49289-4.80705
		c-4.57452-0.66579-9.20511-0.94655-13.81122-1.39543C381.9978,205.24457,381.99854,205.55083,381.9993,205.85709z"/>
	<path d="M344.76831,223.9281c-3.39377,1.1423-6.78754,2.28461-10.1813,3.42691c0.0954,0.32396,0.19077,0.6479,0.28613,0.97185
		c3.43872-0.9994,6.87747-1.99879,10.31622-2.99818C345.04898,224.86182,344.90863,224.39496,344.76831,223.9281z"/>
</g>
</svg>
